# 3ds Max Wavefront OBJ Exporter v0.97b - (c)2007 guruware
# File Created: 27.11.2019 14:02:21

mtllib CraftingTable_01.mtl

#
# object CraftingTable_01
#

v  -0.1950 0.5596 -0.9907
v  -0.1950 0.5596 -1.0136
v  -0.1730 0.5596 -1.0136
v  -0.1730 0.5596 -0.9907
v  -0.1950 0.6552 -0.9907
v  -0.1730 0.6552 -0.9907
v  -0.1730 0.6552 -1.0136
v  -0.1950 0.6552 -1.0136
v  1.6545 0.5596 -0.9907
v  1.6545 0.5596 -1.0136
v  1.6545 0.6552 -1.0136
v  1.6545 0.6552 -0.9907
v  1.6545 0.5596 -1.7506
v  1.6373 0.5596 -1.7506
v  1.6373 0.6552 -1.7506
v  1.6545 0.6552 -1.7506
v  -0.1950 0.5596 -1.7506
v  -0.1950 0.5596 -1.7328
v  -0.1950 0.6552 -1.7328
v  -0.1950 0.6552 -1.7506
v  -0.1950 0.5596 -1.0897
v  -0.1730 0.5596 -1.0897
v  1.6545 0.6552 -1.0897
v  1.6373 0.6552 -1.0897
v  1.6373 0.6552 -1.0136
v  1.6545 0.5596 -1.0897
v  -0.1034 0.5596 -1.0136
v  -0.1034 0.5596 -0.9907
v  -0.1197 0.6552 -0.9907
v  -0.1198 0.6552 -1.0136
v  -0.1730 0.5596 -1.7506
v  -0.1730 0.6552 -1.7506
v  -0.1034 0.5596 -1.7506
v  -0.1034 0.5596 -1.7328
v  -0.1730 0.5596 -1.7328
v  -0.1730 0.6552 -1.7328
v  -0.1197 0.6552 -1.7506
v  -0.1198 0.6552 -1.7328
v  1.5643 0.5596 -1.0136
v  1.5643 0.5596 -0.9907
v  1.5851 0.6552 -0.9907
v  1.5853 0.6552 -1.0136
v  1.5643 0.5596 -1.7506
v  1.5643 0.5596 -1.7328
v  -0.1950 0.6552 -1.0897
v  -0.1950 0.5596 -1.6076
v  -0.1730 0.5596 -1.6578
v  1.6545 0.6552 -1.6076
v  1.6373 0.6552 -1.6076
v  1.6545 0.5596 -1.6076
v  -0.1034 0.0048 -1.0897
v  -0.1034 0.0048 -1.0136
v  -0.1730 0.0048 -1.0136
v  -0.1730 0.0048 -1.0897
v  -0.1730 0.6552 -1.0897
v  -0.1198 0.6552 -1.0897
v  1.6373 0.5596 -1.0136
v  1.6373 0.5596 -1.0897
v  1.5851 0.6552 -1.7506
v  1.5853 0.6552 -1.0897
v  1.6373 0.5596 -0.9907
v  1.6373 0.6552 -0.9907
v  1.6545 0.5596 -1.7328
v  1.6373 0.5596 -1.7328
v  1.5853 0.6552 -1.7328
v  1.6373 0.6552 -1.7328
v  1.6373 0.0048 -1.0136
v  1.5643 0.0048 -1.0136
v  1.5643 0.0048 -1.0897
v  1.6373 0.0048 -1.0897
v  -0.1034 0.5596 -1.0897
v  1.5643 0.5596 -1.0897
v  -0.1950 0.6552 -1.6076
v  -0.1034 0.0048 -1.7328
v  -0.1034 0.0048 -1.6578
v  -0.1730 0.0048 -1.6578
v  -0.1730 0.0048 -1.7328
v  -0.1730 0.6552 -1.6076
v  1.5643 0.5596 -1.6578
v  -0.1034 0.5596 -1.6578
v  1.6545 0.6552 -1.7328
v  1.6373 0.5596 -1.6578
v  1.6373 0.0048 -1.7328
v  1.6373 0.0048 -1.6578
v  1.5643 0.0048 -1.6578
v  1.5643 0.0048 -1.7328
v  -0.1198 0.6552 -1.6076
v  1.5853 0.6552 -1.6076
v  -0.1730 0.1344 -1.0136
v  -0.1034 0.1344 -1.0136
v  -0.1730 0.1344 -1.0897
v  -0.1034 0.1344 -1.0897
v  1.6373 0.1342 -1.0897
v  1.5643 0.1342 -1.0897
v  1.6373 0.1342 -1.0136
v  1.5643 0.1342 -1.0136
v  -0.1034 0.1348 -1.6578
v  -0.1034 0.1348 -1.7328
v  -0.1730 0.1348 -1.6578
v  -0.1730 0.1348 -1.7328
v  -0.1730 0.0524 -1.0136
v  -0.1034 0.0524 -1.0136
v  -0.1730 0.0524 -1.0897
v  -0.1034 0.1344 -1.6612
v  -0.1034 0.0524 -1.6612
v  -0.1730 0.0524 -1.6612
v  -0.1730 0.1344 -1.6612
v  -0.1034 0.0524 -1.0897
v  1.6373 0.1342 -1.6612
v  1.6373 0.0522 -1.6612
v  1.5643 0.0522 -1.6612
v  1.5643 0.1342 -1.6612
v  1.6373 0.0522 -1.0136
v  1.6373 0.0522 -1.0897
v  1.5643 0.0522 -1.0136
v  1.5643 0.0522 -1.0897
v  1.5701 0.1348 -1.6578
v  1.5701 0.0527 -1.6578
v  1.5701 0.0527 -1.7328
v  1.5701 0.1348 -1.7328
v  -0.1730 0.0527 -1.6578
v  -0.1034 0.0527 -1.6578
v  -0.1730 0.0527 -1.7328
v  -0.1034 0.0527 -1.7328
v  -0.1198 0.9673 -1.6076
v  -0.1198 0.9673 -1.7328
v  -0.1730 0.9673 -1.7328
v  -0.1730 0.9673 -1.6076
v  1.6373 0.9673 -1.6076
v  1.6373 0.9673 -1.7328
v  1.5853 0.9673 -1.7328
v  1.5853 0.9673 -1.6076
v  -0.1935 0.9640 -1.5903
v  -0.1935 0.9640 -1.7512
v  1.6494 0.9640 -1.7512
v  1.6494 0.9640 -1.5903
v  -0.1935 0.9920 -1.5903
v  1.6494 0.9920 -1.5903
v  1.6494 0.9920 -1.7512
v  -0.1935 0.9920 -1.7512
# 140 vertices

vn 0.0000 -1.0000 -0.0000
vn 0.0000 1.0000 -0.0000
vn 0.0000 0.0000 1.0000
vn 1.0000 0.0000 -0.0000
vn 0.0000 0.0000 -1.0000
vn -1.0000 0.0000 -0.0000
vn 0.0000 -1.0000 0.0000
vn -1.0000 0.0000 0.0000
# 8 vertex normals

vt 0.1952 0.5586 0.0000
vt 0.1953 0.5508 0.0000
vt 0.2027 0.5511 0.0000
vt 0.2027 0.5587 0.0000
vt 0.1893 0.0275 0.0000
vt 0.1967 0.0274 0.0000
vt 0.1968 0.0350 0.0000
vt 0.1895 0.0352 0.0000
vt 0.2030 0.5905 0.0000
vt 0.1957 0.5905 0.0000
vt 0.8122 0.5513 0.0000
vt 0.8119 0.5435 0.0000
vt 0.8437 0.5414 0.0000
vt 0.8442 0.5491 0.0000
vt 0.8010 0.3031 0.0000
vt 0.7988 0.3034 0.0000
vt 0.8072 0.2741 0.0000
vt 0.8169 0.2775 0.0000
vt 0.1998 0.3106 0.0000
vt 0.1987 0.3130 0.0000
vt 0.1732 0.2987 0.0000
vt 0.1842 0.2848 0.0000
vt 0.1962 0.5252 0.0000
vt 0.2034 0.5262 0.0000
vt 0.8058 0.0283 0.0000
vt 0.8060 0.0537 0.0000
vt 0.8003 0.0537 0.0000
vt 0.8001 0.0283 0.0000
vt 0.8105 0.5179 0.0000
vt 0.8425 0.5158 0.0000
vt 0.1632 0.5571 0.0000
vt 0.1635 0.5494 0.0000
vt 0.2260 0.5512 0.0000
vt 0.2260 0.5587 0.0000
vt 0.2145 0.0271 0.0000
vt 0.2145 0.0347 0.0000
vt 0.2209 0.5905 0.0000
vt 0.2039 0.3098 0.0000
vt 0.1953 0.2807 0.0000
vt 0.2242 0.3077 0.0000
vt 0.2240 0.3132 0.0000
vt 0.2037 0.3140 0.0000
vt 0.1869 0.2757 0.0000
vt 0.1949 0.2754 0.0000
vt 0.2160 0.2774 0.0000
vt 0.2161 0.2725 0.0000
vt 0.7817 0.5447 0.0000
vt 0.7819 0.5521 0.0000
vt 0.7826 0.0208 0.0000
vt 0.7827 0.0284 0.0000
vt 0.7892 0.5838 0.0000
vt 0.7776 0.3014 0.0000
vt 0.7766 0.3080 0.0000
vt 0.1642 0.5239 0.0000
vt 0.1953 0.3521 0.0000
vt 0.2027 0.3371 0.0000
vt 0.8084 0.2265 0.0000
vt 0.8026 0.2266 0.0000
vt 0.8073 0.3448 0.0000
vt 0.8392 0.3402 0.0000
vt 0.5212 0.8028 0.0000
vt 0.5451 0.8116 0.0000
vt 0.5364 0.8330 0.0000
vt 0.5137 0.8224 0.0000
vt 0.1898 0.0606 0.0000
vt 0.1971 0.0604 0.0000
vt 0.2148 0.0600 0.0000
vt 0.8062 0.5439 0.0000
vt 0.8049 0.5190 0.0000
vt 0.7867 0.2711 0.0000
vt 0.7830 0.0537 0.0000
vt 0.8064 0.5515 0.0000
vt 0.8001 0.0207 0.0000
vt 0.8058 0.0207 0.0000
vt 0.8125 0.5832 0.0000
vt 0.8068 0.5834 0.0000
vt 0.8030 0.3055 0.0000
vt 0.7999 0.3073 0.0000
vt 0.7865 0.2662 0.0000
vt 0.8073 0.2686 0.0000
vt 0.9707 0.6633 0.0000
vt 0.9473 0.6682 0.0000
vt 0.9431 0.6433 0.0000
vt 0.9644 0.6396 0.0000
vt 0.2259 0.5263 0.0000
vt 0.7813 0.5197 0.0000
vt 0.1633 0.3482 0.0000
vt 0.8599 0.0530 0.0000
vt 0.9379 0.0558 0.0000
vt 0.9250 0.1001 0.0000
vt 0.8696 0.0982 0.0000
vt 0.1912 0.2333 0.0000
vt 0.1986 0.2333 0.0000
vt 0.7774 0.3259 0.0000
vt 0.2240 0.3373 0.0000
vt 0.8138 0.2686 0.0000
vt 0.8282 0.2910 0.0000
vt 0.8012 0.3300 0.0000
vt 0.7931 0.3138 0.0000
vt 0.7929 0.3223 0.0000
vt 0.7971 0.3252 0.0000
vt 0.7979 0.3114 0.0000
vt 0.2167 0.2322 0.0000
vt 0.7850 0.2259 0.0000
vt 0.5588 0.6210 0.0000
vt 0.5815 0.6225 0.0000
vt 0.5635 0.7623 0.0000
vt 0.5396 0.7611 0.0000
vt 0.6065 0.6250 0.0000
vt 0.5884 0.7638 0.0000
vt 0.5126 0.6133 0.0000
vt 0.5348 0.6172 0.0000
vt 0.5134 0.7607 0.0000
vt 0.5030 0.7481 0.0000
vt 0.7605 0.6383 0.0000
vt 0.7588 0.6151 0.0000
vt 0.8917 0.6184 0.0000
vt 0.9035 0.6310 0.0000
vt 0.7615 0.7105 0.0000
vt 0.7615 0.6857 0.0000
vt 0.9004 0.6824 0.0000
vt 0.9000 0.7078 0.0000
vt 0.7621 0.6622 0.0000
vt 0.9013 0.6572 0.0000
vt 0.8887 0.2277 0.0000
vt 0.9091 0.2325 0.0000
vt 0.9189 0.1866 0.0000
vt 0.8695 0.1848 0.0000
vt 0.9041 0.2223 0.0000
vt 0.9066 0.1796 0.0000
vt 0.8945 0.2226 0.0000
vt 0.8823 0.1787 0.0000
vt 0.7805 0.3131 0.0000
vt 0.7796 0.3238 0.0000
vt 0.5634 0.7891 0.0000
vt 0.5397 0.7877 0.0000
vt 0.5895 0.7904 0.0000
vt 0.3205 0.7535 0.0000
vt 0.3201 0.7798 0.0000
vt 0.2959 0.7746 0.0000
vt 0.2971 0.7513 0.0000
vt 0.5116 0.7905 0.0000
vt 0.9000 0.4380 0.0000
vt 0.9037 0.3782 0.0000
vt 0.9300 0.3830 0.0000
vt 0.9232 0.4415 0.0000
vt 0.9266 0.6840 0.0000
vt 0.9263 0.7090 0.0000
vt 0.9272 0.6597 0.0000
vt 0.9329 0.6327 0.0000
vt 0.9585 0.6287 0.0000
vt 0.9419 0.6847 0.0000
vt 0.9417 0.7093 0.0000
vt 0.9417 0.6622 0.0000
vt 0.5631 0.8045 0.0000
vt 0.5410 0.8027 0.0000
vt 0.5883 0.8061 0.0000
vt 0.5038 0.8143 0.0000
vt 0.7760 0.7416 0.0000
vt 0.7791 0.7687 0.0000
vt 0.3202 0.7307 0.0000
vt 0.3179 0.8024 0.0000
vt 0.9183 0.8959 0.0000
vt 0.8916 0.8948 0.0000
vt 0.9489 0.4446 0.0000
vt 0.9724 0.4456 0.0000
vt 0.2410 0.9437 0.0000
vt 0.0427 0.9385 0.0000
vt 0.0479 0.7415 0.0000
vt 0.2507 0.7425 0.0000
vt 0.9320 0.1116 0.0000
vt 0.9671 0.0689 0.0000
vt 0.8618 0.1091 0.0000
vt 0.8299 0.0640 0.0000
vt 0.2589 0.9658 0.0000
vt 0.0222 0.9586 0.0000
vt 0.0293 0.7237 0.0000
vt 0.2661 0.7309 0.0000
vt 0.4974 0.8216 0.0000
vt 0.4952 0.8620 0.0000
vt 0.4780 0.8611 0.0000
vt 0.4802 0.8207 0.0000
vt 0.3790 0.8616 0.0000
vt 0.3385 0.8610 0.0000
vt 0.3388 0.8441 0.0000
vt 0.3793 0.8448 0.0000
vt 0.4898 0.9628 0.0000
vt 0.4727 0.9619 0.0000
vt 0.4322 0.9597 0.0000
vt 0.4376 0.8589 0.0000
vt 0.4151 0.9588 0.0000
vt 0.4204 0.8580 0.0000
vt 0.5303 0.9649 0.0000
vt 0.5356 0.8642 0.0000
vt 0.3369 0.9619 0.0000
vt 0.3201 0.9616 0.0000
vt 0.3217 0.8607 0.0000
vt 0.2796 0.9610 0.0000
vt 0.2813 0.8600 0.0000
vt 0.3942 0.9628 0.0000
vt 0.3774 0.9625 0.0000
vt 0.3958 0.8619 0.0000
vt 0.0215 0.0270 0.0000
vt 0.0742 0.0262 0.0000
vt 0.0769 0.6222 0.0000
vt 0.0256 0.6230 0.0000
vt 0.1366 0.0257 0.0000
vt 0.1366 0.6218 0.0000
vt 0.0846 0.6219 0.0000
vt 0.0846 0.0259 0.0000
vt 0.1457 0.0257 0.0000
vt 0.1457 0.6217 0.0000
vt 0.0779 0.6311 0.0000
vt 0.0259 0.6323 0.0000
vt 0.0212 0.0182 0.0000
vt 0.0732 0.0170 0.0000
# 216 texture coords

g CraftingTable_01
usemtl wire_086086086
s 2
f 1/1/1 2/2/1 3/3/1 4/4/1 
s 4
f 5/5/2 6/6/2 7/7/2 8/8/2 
s 8
f 1/1/3 4/4/3 6/9/3 5/10/3 
s 16
f 9/11/4 10/12/4 11/13/4 12/14/4 
s 32
f 13/15/5 14/16/5 15/17/5 16/18/5 
s 64
f 17/19/6 18/20/6 19/21/6 20/22/6 
s 2
f 2/2/1 21/23/1 22/24/1 3/3/1 
s 4
f 11/25/2 23/26/2 24/27/2 25/28/2 
s 16
f 10/12/4 26/29/4 23/30/4 11/13/4 
s 64
f 2/2/6 1/1/6 5/31/6 8/32/6 
s 2
f 3/3/1 27/33/1 28/34/1 4/4/1 
s 4
f 6/6/2 29/35/2 30/36/2 7/7/2 
s 8
f 4/4/3 28/34/3 29/37/3 6/9/3 
s 32
f 31/38/5 17/19/5 20/22/5 32/39/5 
s 2
f 31/38/1 33/40/1 34/41/1 35/42/1 
s 4
f 32/39/2 20/22/2 19/43/2 36/44/2 
s 32
f 33/40/5 31/38/5 32/39/5 37/45/5 
s 4
f 37/45/2 32/39/2 36/44/2 38/46/2 
s 2
f 27/33/1 39/47/1 40/48/1 28/34/1 
s 4
f 29/35/2 41/49/2 42/50/2 30/36/2 
s 8
f 28/34/3 40/48/3 41/51/3 29/37/3 
s 2
f 33/40/1 43/52/1 44/53/1 34/41/1 
s 64
f 21/23/6 2/2/6 8/32/6 45/54/6 
s 2
f 21/23/1 46/55/1 18/20/1 35/42/1 47/56/1 22/24/1 
s 4
f 23/26/2 48/57/2 49/58/2 24/27/2 
s 16
f 26/29/4 50/59/4 48/60/4 23/30/4 
s 2
f 51/61/1 52/62/1 53/63/1 54/64/1 
s 4
f 45/65/2 8/8/2 7/7/2 55/66/2 
f 55/66/2 7/7/2 30/36/2 56/67/2 
s 2
f 26/29/1 10/12/1 57/68/1 58/69/1 
s 32
f 14/16/5 43/52/5 59/70/5 15/17/5 
s 4
f 24/27/2 60/71/2 42/50/2 25/28/2 
s 2
f 57/68/1 10/12/1 9/11/1 61/72/1 
s 4
f 62/73/2 12/74/2 11/25/2 25/28/2 
s 8
f 61/72/3 9/11/3 12/75/3 62/76/3 
s 2
f 14/16/1 13/15/1 63/77/7 64/78/1 
s 4
f 15/17/2 59/70/2 65/79/2 66/80/2 
s 2
f 67/81/1 68/82/1 69/83/1 70/84/1 
f 39/47/1 57/68/1 61/72/1 40/48/1 
s 4
f 41/49/2 62/73/2 25/28/2 42/50/2 
s 8
f 40/48/3 61/72/3 62/76/3 41/51/3 
s 2
f 43/52/1 14/16/1 64/78/1 44/53/1 
s 32
f 43/52/5 33/40/5 37/45/5 59/70/5 
s 4
f 60/71/2 56/67/2 30/36/2 42/50/2 
f 59/70/2 37/45/2 38/46/2 65/79/2 
s 2
f 39/47/1 27/33/1 71/85/1 72/86/1 
s 64
f 18/20/6 46/55/6 73/87/6 19/21/6 
s 2
f 74/88/1 75/89/1 76/90/1 77/91/1 
s 4
f 19/43/2 73/92/2 78/93/2 36/44/2 
s 2
f 44/53/1 79/94/1 80/95/1 34/41/1 
f 18/20/1 17/19/1 31/38/1 35/42/1 
s 4
f 81/96/2 16/18/2 15/17/2 66/80/2 
s 16
f 63/77/4 13/15/4 16/18/4 81/97/4 
s 2
f 63/77/7 50/59/1 26/29/1 58/69/1 82/98/7 64/78/1 
f 83/99/1 84/100/1 85/101/1 86/102/1 
s 4
f 38/46/2 87/103/2 88/104/2 65/79/2 
s 2
f 80/95/1 71/85/1 22/24/1 47/56/1 
s 4
f 55/66/2 56/67/2 87/103/2 78/93/2 
s 2
f 79/94/1 72/86/1 71/85/1 80/95/1 
s 4
f 60/71/2 24/27/2 49/58/2 88/104/2 
s 2
f 82/98/7 58/69/1 72/86/1 79/94/1 
s off
f 27/105/3 3/106/3 89/107/3 90/108/3 
f 3/106/6 22/109/6 91/110/6 89/107/6 
f 22/111/5 71/112/5 92/113/5 91/114/5 
f 71/112/4 27/105/4 90/108/4 92/113/4 
f 72/115/5 58/116/5 93/117/5 94/118/5 
f 58/119/4 57/120/4 95/121/4 93/122/4 
f 57/120/3 39/123/3 96/124/3 95/121/3 
f 39/123/6 72/115/6 94/118/6 96/124/6 
f 34/125/4 80/126/4 97/127/4 98/128/4 
f 80/126/3 47/129/3 99/130/3 97/127/3 
f 47/129/6 35/131/6 100/132/6 99/130/6 
f 35/131/5 34/125/5 98/128/5 100/132/5 
f 79/94/6 44/53/6 86/102/6 85/101/6 
f 44/53/5 64/133/5 83/99/5 86/102/5 
f 64/133/4 82/134/4 84/100/4 83/99/4 
f 82/134/3 79/94/3 85/101/3 84/100/3 
f 89/107/3 101/135/3 102/136/3 90/108/3 
f 91/110/6 103/137/6 101/135/6 89/107/6 
f 104/138/5 105/139/5 106/140/5 107/141/5 
f 90/108/4 102/136/4 108/142/4 92/113/4 
f 109/143/5 110/144/5 111/145/5 112/146/5 
f 95/121/4 113/147/4 114/148/4 93/122/4 
f 96/124/3 115/149/3 113/147/3 95/121/3 
f 94/118/6 116/150/6 115/149/6 96/124/6 
f 114/151/5 70/84/5 69/83/5 116/150/5 
f 113/147/4 67/152/4 70/153/4 114/148/4 
f 115/149/3 68/154/3 67/152/3 113/147/3 
f 116/150/6 69/83/6 68/154/6 115/149/6 
f 101/135/3 53/155/3 52/156/3 102/136/3 
f 103/137/6 54/157/6 53/155/6 101/135/6 
f 108/142/5 51/61/5 54/64/5 103/158/5 
f 102/136/4 52/156/4 51/61/4 108/142/4 
f 103/137/8 91/110/8 107/159/8 106/160/8 
f 91/114/2 92/113/2 104/138/2 107/161/2 
f 92/113/4 108/142/4 105/139/4 104/138/4 
f 108/142/1 103/158/1 106/162/1 105/139/1 
f 93/122/4 114/148/4 110/163/4 109/164/4 
f 114/151/1 116/150/1 111/165/1 110/166/1 
f 116/150/6 94/118/6 112/146/6 111/165/6 
f 94/118/2 93/117/2 109/143/2 112/146/2 
f 117/167/4 118/168/4 119/169/4 120/170/4 
f 99/130/3 121/171/3 122/172/3 97/127/3 
f 100/132/6 123/173/6 121/171/6 99/130/6 
f 98/128/5 124/174/5 123/173/5 100/132/5 
f 122/172/4 75/89/4 74/88/4 124/174/4 
f 121/171/3 76/90/3 75/89/3 122/172/3 
f 123/173/6 77/91/6 76/90/6 121/171/6 
f 124/174/5 74/88/5 77/91/5 123/173/5 
f 97/175/3 122/176/3 118/168/3 117/167/3 
f 122/176/1 124/177/1 119/169/1 118/168/1 
f 124/177/5 98/178/5 120/170/5 119/169/5 
f 98/178/2 97/175/2 117/167/2 120/170/2 
s 4
f 48/57/2 81/96/2 66/80/2 49/58/2 
s 16
f 50/59/4 63/77/4 81/97/4 48/60/4 
s 64
f 46/55/6 21/23/6 45/54/6 73/87/6 
s 4
f 73/92/2 45/65/2 55/66/2 78/93/2 
f 87/103/2 56/67/2 60/71/2 88/104/2 
f 125/179/2 126/180/2 127/181/2 128/182/2 
f 129/183/2 130/184/2 131/185/2 132/186/2 
s off
f 38/187/5 36/188/5 127/181/5 126/180/5 
f 36/188/6 78/189/6 128/190/6 127/181/6 
f 78/189/3 87/191/3 125/192/3 128/190/3 
f 87/193/4 38/187/4 126/180/4 125/194/4 
f 66/195/5 65/196/5 131/197/5 130/184/5 
f 65/196/6 88/198/6 132/199/6 131/197/6 
f 88/200/3 49/201/3 129/183/3 132/202/3 
f 49/201/4 66/195/4 130/184/4 129/183/4 
s 2
f 133/203/1 134/204/1 135/205/1 136/206/1 
s 4
f 137/207/2 138/208/2 139/209/2 140/210/2 
s 8
f 133/211/3 136/212/3 138/208/3 137/207/3 
s 16
f 136/206/4 135/205/4 139/213/4 138/214/4 
s 32
f 135/205/5 134/204/5 140/210/5 139/209/5 
s 64
f 134/204/6 133/203/6 137/215/6 140/216/6 
# 134 polygons

