# 3ds Max Wavefront OBJ Exporter v0.97b - (c)2007 guruware
# File Created: 27.11.2019 13:17:09

mtllib Crate_01.mtl

#
# object Box005
#

v  3.5890 1.1375 0.7991
v  3.5890 1.1375 0.0691
v  4.3140 1.1375 0.0691
v  4.3140 1.1375 0.7991
v  3.6316 1.1966 0.7565
v  4.2714 1.1966 0.7565
v  4.2714 1.1966 0.1117
v  3.6316 1.1966 0.1117
v  4.3140 1.2103 0.7991
v  3.5890 1.2103 0.7991
v  4.3140 1.2103 0.0691
v  3.5890 1.2103 0.0691
v  4.2714 1.2103 0.7565
v  3.6316 1.2103 0.7565
v  4.2714 1.2103 0.1117
v  3.6316 1.2103 0.1117
v  4.3316 1.1886 0.7160
v  3.5659 1.1886 0.7226
v  3.5649 1.1886 0.6123
v  4.3306 1.1886 0.6057
v  4.3316 1.2134 0.7160
v  4.3306 1.2134 0.6057
v  3.5649 1.2134 0.6123
v  3.5659 1.2134 0.7226
v  4.3316 1.1886 0.5160
v  3.5659 1.1886 0.5227
v  3.5649 1.1886 0.4124
v  4.3306 1.1886 0.4057
v  4.3316 1.2134 0.5160
v  4.3306 1.2134 0.4057
v  3.5649 1.2134 0.4124
v  3.5659 1.2134 0.5227
v  4.3316 1.1886 0.2914
v  3.5659 1.1886 0.2981
v  3.5649 1.1886 0.1878
v  4.3306 1.1886 0.1811
v  4.3316 1.2134 0.2914
v  4.3306 1.2134 0.1811
v  3.5649 1.2134 0.1878
v  3.5659 1.2134 0.2981
v  3.6025 0.5218 0.7897
v  3.6025 0.5218 0.0781
v  4.2924 0.5218 0.0781
v  4.2924 0.5218 0.7897
v  3.6427 0.6204 0.7461
v  4.2523 0.6204 0.7461
v  4.2523 0.6204 0.1217
v  3.6427 0.6204 0.1217
v  4.2924 0.6248 0.7897
v  3.6025 0.6248 0.7897
v  4.2924 0.7328 0.7897
v  3.6025 0.7328 0.7897
v  3.6025 0.6346 0.7897
v  4.2924 0.6346 0.7897
v  4.2924 0.8407 0.7897
v  3.6025 0.8407 0.7897
v  3.6025 0.7426 0.7897
v  4.2924 0.7426 0.7897
v  4.2924 0.9487 0.7897
v  3.6025 0.9487 0.7897
v  3.6025 0.8506 0.7897
v  4.2924 0.8506 0.7897
v  4.2924 1.0567 0.7897
v  3.6025 1.0567 0.7897
v  3.6025 0.9586 0.7897
v  4.2924 0.9586 0.7897
v  4.2924 1.1696 0.7897
v  3.6025 1.1696 0.7897
v  3.6025 1.0665 0.7897
v  4.2924 1.0665 0.7897
v  4.2924 0.6248 0.0781
v  4.2924 0.7328 0.0781
v  4.2924 0.6346 0.0781
v  4.2924 0.8407 0.0781
v  4.2924 0.7426 0.0781
v  4.2924 0.9487 0.0781
v  4.2924 0.8506 0.0781
v  4.2924 1.0567 0.0781
v  4.2924 0.9586 0.0781
v  4.2924 1.1696 0.0781
v  4.2924 1.0665 0.0781
v  3.6025 0.6248 0.0781
v  3.6025 0.7328 0.0781
v  3.6025 0.6346 0.0781
v  3.6025 0.8407 0.0781
v  3.6025 0.7426 0.0781
v  3.6025 0.9487 0.0781
v  3.6025 0.8506 0.0781
v  3.6025 1.0567 0.0781
v  3.6025 0.9586 0.0781
v  3.6025 1.1696 0.0781
v  3.6025 1.0665 0.0781
v  4.2523 1.1696 0.7461
v  3.6427 1.1696 0.7461
v  4.2523 1.1696 0.1217
v  3.6427 1.1696 0.1217
v  4.2657 0.6297 0.7606
v  3.6293 0.6297 0.7606
v  4.2657 0.7377 0.7606
v  3.6293 0.7377 0.7606
v  4.2657 0.8457 0.7606
v  3.6293 0.8457 0.7606
v  4.2657 0.9536 0.7606
v  3.6293 0.9536 0.7606
v  4.2657 1.0616 0.7606
v  3.6293 1.0616 0.7606
v  4.2657 0.6297 0.1072
v  4.2657 0.7377 0.1072
v  4.2657 0.8457 0.1072
v  4.2657 0.9536 0.1072
v  4.2657 1.0616 0.1072
v  3.6293 0.6297 0.1072
v  3.6293 0.7377 0.1072
v  3.6293 0.8457 0.1072
v  3.6293 0.9536 0.1072
v  3.6293 1.0616 0.1072
# 116 vertices

vn 0.0000 -1.0000 -0.0000
vn 0.0000 1.0000 -0.0000
vn 0.0000 0.0000 1.0000
vn 1.0000 0.0000 -0.0000
vn 0.0000 0.0000 -1.0000
vn -1.0000 0.0000 -0.0000
vn 1.0000 0.0000 -0.0087
vn -0.0087 0.0000 -1.0000
vn -1.0000 0.0000 0.0087
vn 0.0087 0.0000 1.0000
vn 0.0000 0.9859 0.1671
vn 0.0000 -0.9859 0.1671
vn 0.1813 0.9834 -0.0000
vn 0.1813 -0.9834 -0.0000
vn 0.0000 0.9859 -0.1671
vn 0.0000 -0.9859 -0.1671
vn -0.1813 0.9834 -0.0000
vn -0.1813 -0.9834 -0.0000
# 18 vertex normals

vt 0.4312 0.0536 0.0000
vt 0.6248 0.0510 0.0000
vt 0.6239 0.2407 0.0000
vt 0.4371 0.2432 0.0000
vt 0.4482 0.4334 0.0000
vt 0.4459 0.2651 0.0000
vt 0.6157 0.2629 0.0000
vt 0.6178 0.4312 0.0000
vt 0.4311 0.2529 0.0000
vt 0.4118 0.0562 0.0000
vt 0.6302 0.2503 0.0000
vt 0.6443 0.0532 0.0000
vt 0.4311 0.0342 0.0000
vt 0.6245 0.0317 0.0000
vt 0.4363 0.4456 0.0000
vt 0.4444 0.2639 0.0000
vt 0.4470 0.4345 0.0000
vt 0.6172 0.2616 0.0000
vt 0.6301 0.4431 0.0000
vt 0.6190 0.4323 0.0000
vt 0.6992 0.9596 0.0000
vt 0.7010 0.5024 0.0000
vt 0.7625 0.5026 0.0000
vt 0.7614 0.9598 0.0000
vt 0.6999 0.0346 0.0000
vt 0.7664 0.0348 0.0000
vt 0.7675 0.4962 0.0000
vt 0.6960 0.4960 0.0000
vt 0.7678 0.9662 0.0000
vt 0.6927 0.9660 0.0000
vt 0.9079 0.9763 0.0000
vt 0.9035 0.5163 0.0000
vt 0.9654 0.5156 0.0000
vt 0.9705 0.9757 0.0000
vt 0.8961 0.0455 0.0000
vt 0.9630 0.0448 0.0000
vt 0.9703 0.5091 0.0000
vt 0.8984 0.5099 0.0000
vt 0.9742 0.9746 0.0000
vt 0.9015 0.9829 0.0000
vt 0.8011 0.9693 0.0000
vt 0.8057 0.5122 0.0000
vt 0.8672 0.5127 0.0000
vt 0.8633 0.9699 0.0000
vt 0.8074 0.0443 0.0000
vt 0.8739 0.0449 0.0000
vt 0.8722 0.5063 0.0000
vt 0.8007 0.5057 0.0000
vt 0.8696 0.9763 0.0000
vt 0.7946 0.9757 0.0000
vt 0.1637 0.3076 0.0000
vt 0.3379 0.3042 0.0000
vt 0.3420 0.4806 0.0000
vt 0.1677 0.4839 0.0000
vt 0.1963 0.9060 0.0000
vt 0.2008 0.8026 0.0000
vt 0.3074 0.8067 0.0000
vt 0.3033 0.9100 0.0000
vt 0.1702 0.5128 0.0000
vt 0.0041 0.5313 0.0000
vt 0.0002 0.5062 0.0000
vt 0.1715 0.5627 0.0000
vt 0.0051 0.5714 0.0000
vt 0.0043 0.5463 0.0000
vt 0.1708 0.5348 0.0000
vt 0.1720 0.6127 0.0000
vt 0.0052 0.6140 0.0000
vt 0.0050 0.5883 0.0000
vt 0.1717 0.5848 0.0000
vt 0.1720 0.6625 0.0000
vt 0.0052 0.6568 0.0000
vt 0.0055 0.6312 0.0000
vt 0.1721 0.6347 0.0000
vt 0.1714 0.7114 0.0000
vt 0.0049 0.6978 0.0000
vt 0.0058 0.6731 0.0000
vt 0.1721 0.6840 0.0000
vt 0.1654 0.7595 0.0000
vt -0.0005 0.7366 0.0000
vt 0.0042 0.7118 0.0000
vt 0.1706 0.7319 0.0000
vt 0.3407 0.5100 0.0000
vt 0.3412 0.5611 0.0000
vt 0.3411 0.5327 0.0000
vt 0.3419 0.6125 0.0000
vt 0.3417 0.5840 0.0000
vt 0.3421 0.6639 0.0000
vt 0.3420 0.6355 0.0000
vt 0.3419 0.7148 0.0000
vt 0.3417 0.6866 0.0000
vt 0.3463 0.7657 0.0000
vt 0.3421 0.7369 0.0000
vt 0.5104 0.4998 0.0000
vt 0.5071 0.5251 0.0000
vt 0.5078 0.5667 0.0000
vt 0.5078 0.5409 0.0000
vt 0.5087 0.6118 0.0000
vt 0.5085 0.5851 0.0000
vt 0.5088 0.6575 0.0000
vt 0.5086 0.6309 0.0000
vt 0.5084 0.7010 0.0000
vt 0.5079 0.6755 0.0000
vt 0.5128 0.7409 0.0000
vt 0.5083 0.7160 0.0000
vt 0.1627 0.2747 0.0000
vt 0.3369 0.2723 0.0000
vt 0.1617 0.2170 0.0000
vt 0.3359 0.2182 0.0000
vt 0.3361 0.2472 0.0000
vt 0.1619 0.2474 0.0000
vt 0.1622 0.1635 0.0000
vt 0.3363 0.1690 0.0000
vt 0.3357 0.1964 0.0000
vt 0.1616 0.1924 0.0000
vt 0.1642 0.1144 0.0000
vt 0.3381 0.1238 0.0000
vt 0.3368 0.1500 0.0000
vt 0.1628 0.1418 0.0000
vt 0.1671 0.0699 0.0000
vt 0.3409 0.0819 0.0000
vt 0.3391 0.1071 0.0000
vt 0.1653 0.0958 0.0000
vt 0.1701 0.0291 0.0000
vt 0.3439 0.0420 0.0000
vt 0.3420 0.0673 0.0000
vt 0.1682 0.0545 0.0000
vt 0.1547 0.9428 0.0000
vt 0.1603 0.7576 0.0000
vt 0.1521 0.9463 0.0000
vt 0.3513 0.7649 0.0000
vt 0.3418 0.9499 0.0000
vt 0.3441 0.9537 0.0000
vt 0.1714 0.5240 0.0000
vt 0.0119 0.5379 0.0000
vt 0.1724 0.5738 0.0000
vt 0.0126 0.5795 0.0000
vt 0.1729 0.6237 0.0000
vt 0.0129 0.6227 0.0000
vt 0.1728 0.6732 0.0000
vt 0.0131 0.6654 0.0000
vt 0.1721 0.7215 0.0000
vt 0.0125 0.7058 0.0000
vt 0.3400 0.5216 0.0000
vt 0.3407 0.5726 0.0000
vt 0.3412 0.6239 0.0000
vt 0.3411 0.6751 0.0000
vt 0.3410 0.7255 0.0000
vt 0.4997 0.5323 0.0000
vt 0.5006 0.5757 0.0000
vt 0.5011 0.6215 0.0000
vt 0.5008 0.6670 0.0000
vt 0.5004 0.7095 0.0000
vt 0.1694 0.2608 0.0000
vt 0.3293 0.2595 0.0000
vt 0.1687 0.2045 0.0000
vt 0.3286 0.2069 0.0000
vt 0.1696 0.1527 0.0000
vt 0.3294 0.1590 0.0000
vt 0.1718 0.1053 0.0000
vt 0.3315 0.1148 0.0000
vt 0.1748 0.0625 0.0000
vt 0.3343 0.0739 0.0000
# 162 texture coords

g Box005
usemtl wire_115115115
s off
f 1/1/1 2/2/1 3/3/1 4/4/1 
f 5/5/2 6/6/2 7/7/2 8/8/2 
f 1/1/3 4/4/3 9/9/3 10/10/3 
f 4/4/4 3/3/4 11/11/4 9/9/4 
f 3/3/5 2/2/5 12/12/5 11/11/5 
f 2/2/6 1/1/6 10/13/6 12/14/6 
f 10/15/2 9/9/2 13/16/2 14/17/2 
f 9/9/2 11/11/2 15/18/2 13/16/2 
f 11/11/2 12/19/2 16/20/2 15/18/2 
f 12/19/2 10/15/2 14/17/2 16/20/2 
f 14/17/5 13/16/5 6/6/5 5/5/5 
f 13/16/6 15/18/6 7/7/6 6/6/6 
f 15/18/3 16/20/3 8/8/3 7/7/3 
f 16/20/4 14/17/4 5/5/4 8/8/4 
f 17/21/1 18/22/1 19/23/1 20/24/1 
f 21/25/2 22/26/2 23/27/2 24/28/2 
f 17/21/7 20/24/7 22/29/7 21/30/7 
f 20/24/8 19/23/8 23/27/8 22/29/8 
f 19/23/9 18/22/9 24/28/9 23/27/9 
f 18/22/10 17/21/10 21/30/10 24/28/10 
f 25/31/1 26/32/1 27/33/1 28/34/1 
f 29/35/2 30/36/2 31/37/2 32/38/2 
f 25/31/7 28/34/7 30/39/7 29/40/7 
f 28/34/8 27/33/8 31/37/8 30/39/8 
f 27/33/9 26/32/9 32/38/9 31/37/9 
f 26/32/10 25/31/10 29/40/10 32/38/10 
f 33/41/1 34/42/1 35/43/1 36/44/1 
f 37/45/2 38/46/2 39/47/2 40/48/2 
f 33/41/7 36/44/7 38/49/7 37/50/7 
f 36/44/8 35/43/8 39/47/8 38/49/8 
f 35/43/9 34/42/9 40/48/9 39/47/9 
f 34/42/10 33/41/10 37/50/10 40/48/10 
f 41/51/1 42/52/1 43/53/1 44/54/1 
f 45/55/2 46/56/2 47/57/2 48/58/2 
f 44/54/3 49/59/3 50/60/3 41/61/3 
f 51/62/3 52/63/3 53/64/3 54/65/3 
f 55/66/3 56/67/3 57/68/3 58/69/3 
f 59/70/3 60/71/3 61/72/3 62/73/3 
f 63/74/3 64/75/3 65/76/3 66/77/3 
f 67/78/3 68/79/3 69/80/3 70/81/3 
f 43/53/4 71/82/4 49/59/4 44/54/4 
f 72/83/4 51/62/4 54/65/4 73/84/4 
f 74/85/4 55/66/4 58/69/4 75/86/4 
f 76/87/4 59/70/4 62/73/4 77/88/4 
f 78/89/4 63/74/4 66/77/4 79/90/4 
f 80/91/4 67/78/4 70/81/4 81/92/4 
f 42/93/5 82/94/5 71/82/5 43/53/5 
f 83/95/5 72/83/5 73/84/5 84/96/5 
f 85/97/5 74/85/5 75/86/5 86/98/5 
f 87/99/5 76/87/5 77/88/5 88/100/5 
f 89/101/5 78/89/5 79/90/5 90/102/5 
f 91/103/5 80/91/5 81/92/5 92/104/5 
f 41/51/6 50/105/6 82/106/6 42/52/6 
f 52/107/6 83/108/6 84/109/6 53/110/6 
f 56/111/6 85/112/6 86/113/6 57/114/6 
f 60/115/6 87/116/6 88/117/6 61/118/6 
f 64/119/6 89/120/6 90/121/6 65/122/6 
f 68/123/6 91/124/6 92/125/6 69/126/6 
f 68/127/2 67/78/2 93/128/2 94/129/2 
f 67/78/2 80/91/2 95/130/2 93/128/2 
f 80/91/2 91/131/2 96/132/2 95/130/2 
f 91/131/2 68/127/2 94/129/2 96/132/2 
f 94/129/5 93/128/5 46/56/5 45/55/5 
f 93/128/6 95/130/6 47/57/6 46/56/6 
f 95/130/3 96/132/3 48/58/3 47/57/3 
f 96/132/4 94/129/4 45/55/4 48/58/4 
f 49/59/11 97/133/11 98/134/11 50/60/11 
f 51/62/11 99/135/11 100/136/11 52/63/11 
f 53/64/12 98/134/12 97/133/12 54/65/12 
f 55/66/11 101/137/11 102/138/11 56/67/11 
f 57/68/12 100/136/12 99/135/12 58/69/12 
f 59/70/11 103/139/11 104/140/11 60/71/11 
f 61/72/12 102/138/12 101/137/12 62/73/12 
f 63/74/11 105/141/11 106/142/11 64/75/11 
f 65/76/12 104/140/12 103/139/12 66/77/12 
f 69/80/12 106/142/12 105/141/12 70/81/12 
f 71/82/13 107/143/13 97/133/13 49/59/13 
f 72/83/13 108/144/13 99/135/13 51/62/13 
f 54/65/14 97/133/14 107/143/14 73/84/14 
f 74/85/13 109/145/13 101/137/13 55/66/13 
f 58/69/14 99/135/14 108/144/14 75/86/14 
f 76/87/13 110/146/13 103/139/13 59/70/13 
f 62/73/14 101/137/14 109/145/14 77/88/14 
f 78/89/13 111/147/13 105/141/13 63/74/13 
f 66/77/14 103/139/14 110/146/14 79/90/14 
f 70/81/14 105/141/14 111/147/14 81/92/14 
f 82/94/15 112/148/15 107/143/15 71/82/15 
f 83/95/15 113/149/15 108/144/15 72/83/15 
f 73/84/16 107/143/16 112/148/16 84/96/16 
f 85/97/15 114/150/15 109/145/15 74/85/15 
f 75/86/16 108/144/16 113/149/16 86/98/16 
f 87/99/15 115/151/15 110/146/15 76/87/15 
f 77/88/16 109/145/16 114/150/16 88/100/16 
f 89/101/15 116/152/15 111/147/15 78/89/15 
f 79/90/16 110/146/16 115/151/16 90/102/16 
f 81/92/16 111/147/16 116/152/16 92/104/16 
f 50/105/17 98/153/17 112/154/17 82/106/17 
f 52/107/17 100/155/17 113/156/17 83/108/17 
f 84/109/18 112/154/18 98/153/18 53/110/18 
f 56/111/17 102/157/17 114/158/17 85/112/17 
f 86/113/18 113/156/18 100/155/18 57/114/18 
f 60/115/17 104/159/17 115/160/17 87/116/17 
f 88/117/18 114/158/18 102/157/18 61/118/18 
f 64/119/17 106/161/17 116/162/17 89/120/17 
f 90/121/18 115/160/18 104/159/18 65/122/18 
f 92/125/18 116/162/18 106/161/18 69/126/18 
# 106 polygons

