# 3ds Max Wavefront OBJ Exporter v0.97b - (c)2007 guruware
# File Created: 01.12.2019 02:21:38

mtllib Painting_Large.mtl

#
# object Painting_Large
#

v  33.5664 2.5005 0.0000
v  33.5664 0.8336 -0.0000
v  36.0549 0.8336 -0.0000
v  36.0549 2.5005 0.0000
v  36.1169 2.6008 -0.0219
v  36.1331 2.6170 -0.0332
v  34.8049 2.6170 -0.0332
v  34.8049 2.6008 -0.0219
v  36.1129 2.5968 -0.0448
v  34.8049 2.5968 -0.0448
v  36.0927 2.5766 -0.0338
v  34.8049 2.5766 -0.0338
v  35.9415 2.4254 -0.0338
v  34.8049 2.4254 -0.0338
v  35.9213 2.4052 -0.0448
v  34.8049 2.4052 -0.0448
v  35.9011 2.3850 -0.0332
v  34.8049 2.3850 -0.0332
v  35.9188 2.4027 -0.0217
v  34.8049 2.4027 -0.0217
v  35.9188 2.4027 0.0209
v  35.9013 2.3852 0.0324
v  34.8049 2.3852 0.0324
v  34.8049 2.4027 0.0209
v  35.9215 2.4054 0.0440
v  34.8049 2.4054 0.0440
v  35.9416 2.4255 0.0338
v  34.8049 2.4255 0.0338
v  36.0929 2.5768 0.0338
v  34.8049 2.5768 0.0338
v  36.1129 2.5968 0.0440
v  34.8049 2.5968 0.0440
v  36.1331 2.6170 0.0324
v  34.8049 2.6170 0.0324
v  36.1169 2.6008 0.0210
v  34.8049 2.6008 0.0210
v  33.4766 2.6170 -0.0332
v  33.4928 2.6008 -0.0219
v  33.4968 2.5968 -0.0448
v  33.5170 2.5766 -0.0338
v  33.6682 2.4254 -0.0338
v  33.6884 2.4052 -0.0448
v  33.7086 2.3850 -0.0332
v  33.6909 2.4027 -0.0217
v  33.7084 2.3852 0.0324
v  33.6909 2.4027 0.0209
v  33.6882 2.4054 0.0440
v  33.6681 2.4255 0.0338
v  33.5169 2.5768 0.0338
v  33.4968 2.5968 0.0440
v  33.4766 2.6170 0.0324
v  33.4928 2.6008 0.0210
v  33.4766 1.6883 -0.0332
v  33.4928 1.6883 -0.0219
v  33.4968 1.6883 -0.0448
v  33.5170 1.6883 -0.0338
v  33.6682 1.6883 -0.0338
v  33.6884 1.6883 -0.0448
v  33.7086 1.6883 -0.0332
v  33.6909 1.6883 -0.0217
v  33.7084 1.6883 0.0324
v  33.6909 1.6883 0.0209
v  33.6882 1.6883 0.0440
v  33.6681 1.6883 0.0338
v  33.5169 1.6883 0.0338
v  33.4968 1.6883 0.0440
v  33.4766 1.6883 0.0324
v  33.4928 1.6883 0.0210
v  33.4766 0.7595 -0.0332
v  33.4928 0.7757 -0.0219
v  33.4968 0.7797 -0.0448
v  33.5170 0.7999 -0.0338
v  33.6682 0.9511 -0.0338
v  33.6884 0.9713 -0.0448
v  33.7086 0.9915 -0.0332
v  33.6909 0.9738 -0.0217
v  33.7084 0.9913 0.0324
v  33.6909 0.9738 0.0209
v  33.6882 0.9711 0.0440
v  33.6681 0.9510 0.0338
v  33.5169 0.7997 0.0338
v  33.4968 0.7797 0.0440
v  33.4766 0.7595 0.0324
v  33.4928 0.7757 0.0210
v  34.8049 0.7595 -0.0332
v  34.8049 0.7757 -0.0219
v  34.8049 0.7797 -0.0448
v  34.8049 0.7999 -0.0338
v  34.8049 0.9511 -0.0338
v  34.8049 0.9713 -0.0448
v  34.8049 0.9915 -0.0332
v  34.8049 0.9738 -0.0217
v  34.8049 0.9913 0.0324
v  34.8049 0.9738 0.0209
v  34.8049 0.9711 0.0440
v  34.8049 0.9510 0.0338
v  34.8049 0.7997 0.0338
v  34.8049 0.7797 0.0440
v  34.8049 0.7595 0.0324
v  34.8049 0.7757 0.0210
v  36.1331 0.7595 -0.0332
v  36.1169 0.7757 -0.0219
v  36.1129 0.7797 -0.0448
v  36.0927 0.7999 -0.0338
v  35.9415 0.9511 -0.0338
v  35.9213 0.9713 -0.0448
v  35.9011 0.9915 -0.0332
v  35.9188 0.9738 -0.0217
v  35.9013 0.9913 0.0324
v  35.9188 0.9738 0.0209
v  35.9215 0.9711 0.0440
v  35.9416 0.9510 0.0338
v  36.0929 0.7997 0.0338
v  36.1129 0.7797 0.0440
v  36.1331 0.7595 0.0324
v  36.1169 0.7757 0.0210
v  36.1331 1.6882 -0.0332
v  36.1169 1.6882 -0.0219
v  36.1129 1.6882 -0.0448
v  36.0927 1.6882 -0.0338
v  35.9415 1.6883 -0.0338
v  35.9213 1.6883 -0.0448
v  35.9011 1.6883 -0.0332
v  35.9188 1.6883 -0.0217
v  35.9013 1.6883 0.0324
v  35.9188 1.6883 0.0209
v  35.9215 1.6883 0.0440
v  35.9416 1.6883 0.0338
v  36.0929 1.6882 0.0338
v  36.1129 1.6882 0.0440
v  36.1331 1.6882 0.0324
v  36.1169 1.6882 0.0210
# 132 vertices

vn 0.0000 -0.0000 1.0000
vn 0.3135 0.3135 0.8963
vn 0.7068 0.7068 -0.0275
vn 0.0000 0.9990 -0.0449
vn 0.0000 0.5732 0.8194
vn 0.1313 0.1313 -0.9826
vn -0.0000 0.0105 -0.9999
vn -0.2547 -0.2547 -0.9329
vn -0.0000 -0.4792 -0.8777
vn 0.0000 0.0000 -1.0000
vn -0.0000 0.0000 -1.0000
vn 0.2547 0.2547 -0.9329
vn 0.1202 0.1202 -0.9854
vn -0.0000 -0.0105 -0.9999
vn -0.0000 0.4792 -0.8777
vn -0.7063 -0.7063 -0.0469
vn 0.0000 -0.9996 -0.0273
vn -0.2947 -0.2947 0.9090
vn 0.0000 -0.5441 0.8390
vn -0.2974 -0.2974 -0.9073
vn -0.7062 -0.7062 0.0512
vn 0.0000 -0.9996 0.0298
vn 0.0000 -0.5483 -0.8363
vn 0.1091 0.1091 0.9880
vn 0.0000 -0.0250 0.9997
vn 0.2394 0.2394 0.9410
vn -0.0000 0.4535 0.8913
vn -0.0000 -0.0000 1.0000
vn -0.2394 -0.2394 0.9410
vn 0.1355 0.1355 0.9815
vn 0.0000 0.0250 0.9997
vn -0.0000 -0.4535 0.8913
vn 0.7068 0.7068 0.0275
vn 0.0000 0.9990 0.0449
vn 0.3135 0.3135 -0.8963
vn 0.0000 0.5732 -0.8194
vn 0.7071 0.7071 -0.0000
vn 0.0000 1.0000 -0.0000
vn -0.7068 0.7068 -0.0275
vn -0.3135 0.3135 0.8963
vn -0.1313 0.1313 -0.9826
vn 0.2547 -0.2547 -0.9329
vn -0.1202 0.1202 -0.9854
vn -0.2547 0.2547 -0.9329
vn 0.7063 -0.7063 -0.0469
vn 0.2947 -0.2947 0.9090
vn 0.7062 -0.7062 0.0512
vn 0.2974 -0.2974 -0.9073
vn -0.1091 0.1091 0.9880
vn -0.2394 0.2394 0.9410
vn -0.1355 0.1355 0.9815
vn 0.2394 -0.2394 0.9410
vn -0.7068 0.7068 0.0275
vn -0.3135 0.3135 -0.8963
vn -0.7071 0.7071 -0.0000
vn -0.9990 0.0000 -0.0449
vn -0.5732 -0.0000 0.8194
vn -0.0105 0.0000 -0.9999
vn 0.4792 -0.0000 -0.8777
vn 0.0105 0.0000 -0.9999
vn -0.4792 -0.0000 -0.8777
vn 0.9996 0.0000 -0.0273
vn 0.5441 0.0000 0.8390
vn 0.9996 0.0000 0.0298
vn 0.5483 0.0000 -0.8363
vn 0.0250 -0.0000 0.9997
vn -0.4535 -0.0000 0.8913
vn -0.0250 -0.0000 0.9997
vn 0.4535 -0.0000 0.8913
vn -0.9990 0.0000 0.0449
vn -0.5732 0.0000 -0.8194
vn -1.0000 0.0000 -0.0000
vn -0.7068 -0.7068 -0.0275
vn -0.3135 -0.3135 0.8963
vn -0.1313 -0.1313 -0.9826
vn -0.0000 -0.0000 -1.0000
vn -0.1202 -0.1202 -0.9854
vn 0.7063 0.7063 -0.0469
vn 0.2947 0.2947 0.9090
vn 0.7062 0.7062 0.0512
vn 0.2974 0.2974 -0.9073
vn -0.1091 -0.1091 0.9880
vn 0.0000 0.0000 1.0000
vn -0.1355 -0.1355 0.9815
vn -0.7068 -0.7068 0.0275
vn -0.3135 -0.3135 -0.8963
vn -0.7071 -0.7071 -0.0000
vn -0.0000 -0.9990 -0.0449
vn -0.0000 -0.5732 0.8194
vn 0.0000 0.4792 -0.8777
vn 0.0000 -0.4792 -0.8777
vn -0.0000 0.9996 -0.0273
vn -0.0000 0.5441 0.8390
vn -0.0000 0.9996 0.0298
vn -0.0000 0.5483 -0.8363
vn 0.0000 -0.4535 0.8913
vn -0.0000 -0.0250 0.9997
vn 0.0000 0.4535 0.8913
vn -0.0000 -0.9990 0.0449
vn -0.0000 -0.5732 -0.8194
vn -0.0000 -1.0000 -0.0000
vn 0.7068 -0.7068 -0.0275
vn 0.3135 -0.3135 0.8963
vn 0.1313 -0.1313 -0.9826
vn 0.0000 -0.0000 -1.0000
vn 0.1202 -0.1202 -0.9854
vn -0.7063 0.7063 -0.0469
vn -0.2947 0.2947 0.9090
vn -0.7062 0.7062 0.0512
vn -0.2974 0.2974 -0.9073
vn 0.1091 -0.1091 0.9880
vn -0.0000 0.0000 1.0000
vn 0.1355 -0.1355 0.9815
vn 0.7068 -0.7068 0.0275
vn 0.3135 -0.3135 -0.8963
vn 0.7071 -0.7071 -0.0000
vn 0.9990 -0.0000 -0.0449
vn 0.5732 -0.0000 0.8194
vn -0.4792 0.0000 -0.8777
vn 0.4792 0.0000 -0.8777
vn -0.9996 -0.0000 -0.0273
vn -0.5441 -0.0000 0.8390
vn -0.9996 -0.0000 0.0298
vn -0.5483 -0.0000 -0.8363
vn 0.4535 0.0000 0.8913
vn 0.9990 -0.0000 0.0449
vn 0.5732 -0.0000 -0.8194
vn 1.0000 -0.0000 -0.0000
# 128 vertex normals

vt 0.2350 0.9607 0.0000
vt 0.2350 0.5788 0.0000
vt 0.6169 0.5788 0.0000
vt 0.6169 0.9607 0.0000
vt 0.7324 0.0351 0.0000
vt 0.7309 0.0433 0.0000
vt 0.4087 0.0623 0.0000
vt 0.4019 0.0558 0.0000
vt 0.7267 0.0492 0.0000
vt 0.4096 0.0679 0.0000
vt 0.7224 0.0551 0.0000
vt 0.4101 0.0735 0.0000
vt 0.6883 0.0940 0.0000
vt 0.4127 0.1100 0.0000
vt 0.6841 0.0999 0.0000
vt 0.4132 0.1155 0.0000
vt 0.6802 0.1060 0.0000
vt 0.4142 0.1209 0.0000
vt 0.6857 0.1110 0.0000
vt 0.4154 0.1258 0.0000
vt 0.8634 0.2452 0.0000
vt 0.8684 0.2437 0.0000
vt 0.9071 0.3592 0.0000
vt 0.9043 0.3601 0.0000
vt 0.8718 0.2426 0.0000
vt 0.9103 0.3578 0.0000
vt 0.8764 0.2405 0.0000
vt 0.9141 0.3560 0.0000
vt 0.8878 0.2366 0.0000
vt 0.9345 0.3459 0.0000
vt 0.8910 0.2352 0.0000
vt 0.9393 0.3428 0.0000
vt 0.8933 0.2343 0.0000
vt 0.9427 0.3405 0.0000
vt 0.8967 0.2324 0.0000
vt 0.9450 0.3392 0.0000
vt 0.7343 0.0216 0.0000
vt 0.4035 0.0424 0.0000
vt 0.0908 0.0943 0.0000
vt 0.0853 0.0915 0.0000
vt 0.0934 0.0962 0.0000
vt 0.0987 0.1006 0.0000
vt 0.1374 0.1348 0.0000
vt 0.1428 0.1392 0.0000
vt 0.1476 0.1430 0.0000
vt 0.1521 0.1463 0.0000
vt 0.9088 0.5148 0.0000
vt 0.9032 0.5139 0.0000
vt 0.9151 0.5155 0.0000
vt 0.9241 0.5157 0.0000
vt 0.9557 0.5208 0.0000
vt 0.9629 0.5210 0.0000
vt 0.9681 0.5216 0.0000
vt 0.9733 0.5205 0.0000
vt 0.0850 0.0845 0.0000
vt 0.0931 0.3167 0.0000
vt 0.0883 0.3170 0.0000
vt 0.0987 0.3164 0.0000
vt 0.1043 0.3161 0.0000
vt 0.1407 0.3142 0.0000
vt 0.1459 0.3139 0.0000
vt 0.1510 0.3136 0.0000
vt 0.1556 0.3134 0.0000
vt 0.9012 0.6088 0.0000
vt 0.8962 0.6080 0.0000
vt 0.9058 0.6101 0.0000
vt 0.9119 0.6127 0.0000
vt 0.9299 0.6170 0.0000
vt 0.9352 0.6196 0.0000
vt 0.9391 0.6208 0.0000
vt 0.9429 0.6270 0.0000
vt 0.9773 0.5207 0.0000
vt 0.9491 0.6299 0.0000
vt 0.1148 0.5384 0.0000
vt 0.1114 0.5414 0.0000
vt 0.1171 0.5360 0.0000
vt 0.1219 0.5310 0.0000
vt 0.1566 0.4928 0.0000
vt 0.1615 0.4879 0.0000
vt 0.1659 0.4837 0.0000
vt 0.1692 0.4795 0.0000
vt 0.8995 0.7031 0.0000
vt 0.8954 0.7021 0.0000
vt 0.9048 0.7054 0.0000
vt 0.9119 0.7085 0.0000
vt 0.9447 0.7195 0.0000
vt 0.9519 0.7223 0.0000
vt 0.9571 0.7242 0.0000
vt 0.9602 0.7254 0.0000
vt 0.9648 0.7260 0.0000
vt 0.4342 0.5358 0.0000
vt 0.4335 0.5402 0.0000
vt 0.4345 0.5302 0.0000
vt 0.4343 0.5246 0.0000
vt 0.4330 0.4879 0.0000
vt 0.4330 0.4825 0.0000
vt 0.4334 0.4770 0.0000
vt 0.4340 0.4720 0.0000
vt 0.8433 0.8198 0.0000
vt 0.8409 0.8189 0.0000
vt 0.8474 0.8219 0.0000
vt 0.8534 0.8258 0.0000
vt 0.8695 0.8338 0.0000
vt 0.8752 0.8371 0.0000
vt 0.8791 0.8387 0.0000
vt 0.8813 0.8393 0.0000
vt 0.1124 0.5463 0.0000
vt 0.4319 0.5469 0.0000
vt 0.7565 0.5202 0.0000
vt 0.7569 0.5259 0.0000
vt 0.7517 0.5147 0.0000
vt 0.7469 0.5094 0.0000
vt 0.7087 0.4744 0.0000
vt 0.7040 0.4689 0.0000
vt 0.6994 0.4633 0.0000
vt 0.7044 0.4577 0.0000
vt 0.8089 0.9431 0.0000
vt 0.8065 0.9456 0.0000
vt 0.8129 0.9464 0.0000
vt 0.8172 0.9513 0.0000
vt 0.8446 0.9695 0.0000
vt 0.8496 0.9735 0.0000
vt 0.8542 0.9760 0.0000
vt 0.8563 0.9733 0.0000
vt 0.7557 0.5331 0.0000
vt 0.7760 0.5020 0.0000
vt 0.7714 0.5062 0.0000
vt 0.7597 0.2809 0.0000
vt 0.7645 0.2806 0.0000
vt 0.7655 0.5016 0.0000
vt 0.7541 0.2812 0.0000
vt 0.7597 0.4970 0.0000
vt 0.7485 0.2815 0.0000
vt 0.7211 0.4622 0.0000
vt 0.7118 0.2835 0.0000
vt 0.7152 0.4577 0.0000
vt 0.7063 0.2837 0.0000
vt 0.7093 0.4531 0.0000
vt 0.7006 0.2841 0.0000
vt 0.6955 0.2843 0.0000
vt 0.8075 0.0590 0.0000
vt 0.8112 0.0602 0.0000
vt 0.8470 0.1505 0.0000
vt 0.8444 0.1508 0.0000
vt 0.8133 0.0562 0.0000
vt 0.8501 0.1492 0.0000
vt 0.8159 0.0529 0.0000
vt 0.8532 0.1460 0.0000
vt 0.8286 0.0274 0.0000
vt 0.8734 0.1441 0.0000
vt 0.8307 0.0254 0.0000
vt 0.8776 0.1427 0.0000
vt 0.8328 0.0226 0.0000
vt 0.8808 0.1427 0.0000
vt 0.8352 0.0216 0.0000
vt 0.8832 0.1405 0.0000
vt 0.8378 0.0204 0.0000
vt 0.8871 0.1399 0.0000
vt 0.7472 0.0556 0.0000
vt 0.7522 0.0593 0.0000
vt 0.7418 0.0608 0.0000
vt 0.7365 0.0660 0.0000
vt 0.7018 0.1047 0.0000
vt 0.6965 0.1099 0.0000
vt 0.6911 0.1151 0.0000
vt 0.8629 0.2429 0.0000
vt 0.9005 0.2285 0.0000
# 167 texture coords

g Painting_Large
usemtl wire_177088027
s 1
f 1/1/1 2/2/1 3/3/1 4/4/1 
s 2049
f 5/5/2 6/6/3 7/7/4 8/8/5 
s 4099
f 6/6/3 9/9/6 10/10/7 7/7/4 
s 8194
f 9/9/6 11/11/8 12/12/9 10/10/7 
s 4100
f 11/11/10 13/13/10 14/14/11 12/12/11 
s 8194
f 13/13/12 15/15/13 16/16/14 14/14/15 
s 4098
f 15/15/13 17/17/16 18/18/17 16/16/14 
s 8194
f 17/17/16 19/19/18 20/20/19 18/18/17 
f 21/21/20 22/22/21 23/23/22 24/24/23 
s 4098
f 22/22/21 25/25/24 26/26/25 23/23/22 
s 8194
f 25/25/24 27/27/26 28/28/27 26/26/25 
s 4100
f 27/27/28 29/29/28 30/30/1 28/28/1 
s 8194
f 29/29/29 31/31/30 32/32/31 30/30/32 
s 4098
f 31/31/30 33/33/33 34/34/34 32/32/31 
s 8194
f 33/33/33 35/35/35 36/36/36 34/34/34 
s 4100
f 35/37/37 5/5/37 8/8/38 36/38/38 
s 2056
f 8/8/5 7/7/4 37/39/39 38/40/40 
s 4120
f 7/7/4 10/10/7 39/41/41 37/39/39 
s 8208
f 10/10/7 12/12/9 40/42/42 39/41/41 
s 4128
f 12/12/11 14/14/11 41/43/11 40/42/11 
s 8208
f 14/14/15 16/16/14 42/44/43 41/43/44 
s 4112
f 16/16/14 18/18/17 43/45/45 42/44/43 
s 8208
f 18/18/17 20/20/19 44/46/46 43/45/45 
f 24/24/23 23/23/22 45/47/47 46/48/48 
s 4112
f 23/23/22 26/26/25 47/49/49 45/47/47 
s 8208
f 26/26/25 28/28/27 48/50/50 47/49/49 
s 4128
f 28/28/1 30/30/1 49/51/1 48/50/1 
s 8208
f 30/30/32 32/32/31 50/52/51 49/51/52 
s 4112
f 32/32/31 34/34/34 51/53/53 50/52/51 
s 8208
f 34/34/34 36/36/36 52/54/54 51/53/53 
s 4128
f 36/38/38 8/8/38 38/40/55 52/55/55 
s 2049
f 38/40/40 37/39/39 53/56/56 54/57/57 
s 4099
f 37/39/39 39/41/41 55/58/58 53/56/56 
s 8194
f 39/41/41 40/42/42 56/59/59 55/58/58 
s 4100
f 40/42/11 41/43/11 57/60/11 56/59/11 
s 8194
f 41/43/44 42/44/43 58/61/60 57/60/61 
s 4098
f 42/44/43 43/45/45 59/62/62 58/61/60 
s 8194
f 43/45/45 44/46/46 60/63/63 59/62/62 
f 46/48/48 45/47/47 61/64/64 62/65/65 
s 4098
f 45/47/47 47/49/49 63/66/66 61/64/64 
s 8194
f 47/49/49 48/50/50 64/67/67 63/66/66 
s 4100
f 48/50/1 49/51/1 65/68/1 64/67/1 
s 8194
f 49/51/52 50/52/51 66/69/68 65/68/69 
s 4098
f 50/52/51 51/53/53 67/70/70 66/69/68 
s 8194
f 51/53/53 52/54/54 68/71/71 67/70/70 
s 4100
f 52/54/55 38/72/55 54/73/72 68/71/72 
s 2056
f 54/57/57 53/56/56 69/74/73 70/75/74 
s 4120
f 53/56/56 55/58/58 71/76/75 69/74/73 
s 8208
f 55/58/58 56/59/59 72/77/12 71/76/75 
s 4128
f 56/59/11 57/60/11 73/78/76 72/77/76 
s 8208
f 57/60/61 58/61/60 74/79/77 73/78/8 
s 4112
f 58/61/60 59/62/62 75/80/78 74/79/77 
s 8208
f 59/62/62 60/63/63 76/81/79 75/80/78 
f 62/65/65 61/64/64 77/82/80 78/83/81 
s 4112
f 61/64/64 63/66/66 79/84/82 77/82/80 
s 8208
f 63/66/66 64/67/67 80/85/29 79/84/82 
s 4128
f 64/67/1 65/68/1 81/86/83 80/85/83 
s 8208
f 65/68/69 66/69/68 82/87/84 81/86/26 
s 4112
f 66/69/68 67/70/70 83/88/85 82/87/84 
s 8208
f 67/70/70 68/71/71 84/89/86 83/88/85 
s 4128
f 68/71/72 54/73/72 70/90/87 84/89/87 
s 2049
f 70/75/74 69/74/73 85/91/88 86/92/89 
s 4099
f 69/74/73 71/76/75 87/93/14 85/91/88 
s 8194
f 71/76/75 72/77/12 88/94/90 87/93/14 
s 4100
f 72/77/76 73/78/76 89/95/76 88/94/76 
s 8194
f 73/78/8 74/79/77 90/96/7 89/95/91 
s 4098
f 74/79/77 75/80/78 91/97/92 90/96/7 
s 8194
f 75/80/78 76/81/79 92/98/93 91/97/92 
f 78/83/81 77/82/80 93/99/94 94/100/95 
s 4098
f 77/82/80 79/84/82 95/101/31 93/99/94 
s 8194
f 79/84/82 80/85/29 96/102/96 95/101/31 
s 4100
f 80/85/83 81/86/83 97/103/83 96/102/83 
s 8194
f 81/86/26 82/87/84 98/104/97 97/103/98 
s 4098
f 82/87/84 83/88/85 99/105/99 98/104/97 
s 8194
f 83/88/85 84/89/86 100/106/100 99/105/99 
s 4100
f 84/107/87 70/75/87 86/92/101 100/108/101 
s 2056
f 86/92/89 85/91/88 101/109/102 102/110/103 
s 4120
f 85/91/88 87/93/14 103/111/104 101/109/102 
s 8208
f 87/93/14 88/94/90 104/112/44 103/111/104 
s 4128
f 88/94/76 89/95/76 105/113/105 104/112/105 
s 8208
f 89/95/91 90/96/7 106/114/106 105/113/42 
s 4112
f 90/96/7 91/97/92 107/115/107 106/114/106 
s 8208
f 91/97/92 92/98/93 108/116/108 107/115/107 
f 94/100/95 93/99/94 109/117/109 110/118/110 
s 4112
f 93/99/94 95/101/31 111/119/111 109/117/109 
s 8208
f 95/101/31 96/102/96 112/120/52 111/119/111 
s 4128
f 96/102/83 97/103/83 113/121/112 112/120/112 
s 8208
f 97/103/98 98/104/97 114/122/113 113/121/50 
s 4112
f 98/104/97 99/105/99 115/123/114 114/122/113 
s 8208
f 99/105/99 100/106/100 116/124/115 115/123/114 
s 4128
f 100/108/101 86/92/101 102/110/116 116/125/116 
s 2049
f 102/126/103 101/127/102 117/128/117 118/129/118 
s 4099
f 101/127/102 103/130/104 119/131/60 117/128/117 
s 8194
f 103/130/104 104/132/44 120/133/119 119/131/60 
s 4100
f 104/132/105 105/134/105 121/135/10 120/133/10 
s 8194
f 105/134/42 106/136/106 122/137/58 121/135/120 
s 4098
f 106/136/106 107/138/107 123/139/121 122/137/58 
s 8194
f 107/138/107 108/116/108 124/140/122 123/139/121 
f 110/141/110 109/142/109 125/143/123 126/144/124 
s 4098
f 109/142/109 111/145/111 127/146/68 125/143/123 
s 8194
f 111/145/111 112/147/52 128/148/125 127/146/68 
s 4100
f 112/147/112 113/149/112 129/150/28 128/148/28 
s 8194
f 113/149/50 114/151/113 130/152/66 129/150/67 
s 4098
f 114/151/113 115/153/114 131/154/126 130/152/66 
s 8194
f 115/153/114 116/155/115 132/156/127 131/154/126 
s 4100
f 116/155/116 102/157/116 118/158/128 132/156/128 
s 2056
f 118/129/118 117/128/117 6/159/3 5/160/2 
s 4120
f 117/128/117 119/131/60 9/161/6 6/159/3 
s 8208
f 119/131/60 120/133/119 11/162/8 9/161/6 
s 4128
f 120/133/10 121/135/10 13/163/10 11/162/10 
s 8208
f 121/135/120 122/137/58 15/164/13 13/163/12 
s 4112
f 122/137/58 123/139/121 17/165/16 15/164/13 
s 8208
f 123/139/121 124/140/122 19/19/18 17/165/16 
f 126/144/124 125/143/123 22/22/21 21/166/20 
s 4112
f 125/143/123 127/146/68 25/25/24 22/22/21 
s 8208
f 127/146/68 128/148/125 27/27/26 25/25/24 
s 4128
f 128/148/28 129/150/28 29/29/28 27/27/28 
s 8208
f 129/150/67 130/152/66 31/31/30 29/29/29 
s 4112
f 130/152/66 131/154/126 33/33/33 31/31/30 
s 8208
f 131/154/126 132/156/127 35/35/35 33/33/33 
s 4128
f 132/156/128 118/158/128 5/167/37 35/35/37 
s off
f 19/19/11 124/140/11 108/116/11 92/98/11 76/81/11 60/63/11 44/46/11 20/20/11 
# 122 polygons

