# 3ds Max Wavefront OBJ Exporter v0.97b - (c)2007 guruware
# File Created: 27.11.2019 13:16:56

mtllib FootStool_01.mtl

#
# object Wooden_Footstool_01
#

v  5.9699 0.5189 0.2918
v  5.9491 0.7755 0.3070
v  5.9999 0.7755 0.4632
v  6.0256 0.5189 0.4632
v  5.8241 0.5189 0.1859
v  5.8162 0.7755 0.2104
v  5.6439 0.5189 0.1859
v  5.6519 0.7755 0.2104
v  5.4981 0.5189 0.2918
v  5.5189 0.7755 0.3070
v  5.4424 0.5189 0.4632
v  5.4682 0.7755 0.4632
v  5.4981 0.5189 0.6346
v  5.5189 0.7755 0.6195
v  5.6439 0.5189 0.7406
v  5.6519 0.7755 0.7161
v  5.8241 0.5189 0.7406
v  5.8162 0.7755 0.7161
v  5.9699 0.5189 0.6346
v  5.9491 0.7755 0.6195
v  5.8062 1.0182 0.2104
v  5.6418 1.0182 0.2104
v  5.5089 1.0182 0.3070
v  5.9391 1.0182 0.3070
v  5.9899 1.0182 0.4632
v  5.4581 1.0182 0.4632
v  5.5089 1.0182 0.6195
v  5.6418 1.0182 0.7161
v  5.8062 1.0182 0.7161
v  5.9391 1.0182 0.6195
# 30 vertices

vn 0.8050 0.0998 -0.5849
vn 0.8086 0.0671 -0.5846
vn 0.9975 0.0710 -0.0000
vn 0.9950 0.0998 -0.0000
vn 0.3075 0.0998 -0.9463
vn 0.3121 0.0570 -0.9483
vn -0.3075 0.0998 -0.9463
vn -0.3050 0.0442 -0.9513
vn -0.8050 0.0998 -0.5849
vn -0.8071 0.0338 -0.5894
vn -0.9950 0.0998 0.0000
vn -0.9996 0.0297 0.0000
vn -0.8050 0.0998 0.5849
vn -0.8071 0.0338 0.5894
vn -0.3075 0.0998 0.9463
vn -0.3051 0.0442 0.9513
vn 0.3075 0.0998 0.9463
vn 0.3121 0.0570 0.9483
vn 0.8050 0.0998 0.5849
vn 0.8086 0.0671 0.5846
vn 0.0000 -1.0000 -0.0000
vn 0.0000 1.0000 -0.0000
vn 0.8057 0.0333 -0.5914
vn 0.9991 0.0413 -0.0000
vn 0.3016 0.0125 -0.9534
vn -0.3163 -0.0131 -0.9486
vn -0.8113 -0.0335 -0.5836
vn -0.9991 -0.0413 0.0000
vn -0.8113 -0.0335 0.5836
vn -0.3163 -0.0131 0.9486
vn 0.3016 0.0125 0.9534
vn 0.8057 0.0333 0.5914
# 32 vertex normals

vt 0.6109 0.6186 0.0000
vt 0.4896 0.5979 0.0000
vt 0.5015 0.5190 0.0000
vt 0.6236 0.5347 0.0000
vt 0.5949 0.7018 0.0000
vt 0.4743 0.6764 0.0000
vt 0.5759 0.7841 0.0000
vt 0.4562 0.7545 0.0000
vt 0.5546 0.8660 0.0000
vt 0.4359 0.8320 0.0000
vt 0.5298 0.9477 0.0000
vt 0.4142 0.9081 0.0000
vt 0.6410 0.1969 0.0000
vt 0.5175 0.1995 0.0000
vt 0.5159 0.1203 0.0000
vt 0.6379 0.1112 0.0000
vt 0.6408 0.2815 0.0000
vt 0.5175 0.2796 0.0000
vt 0.6382 0.3659 0.0000
vt 0.5151 0.3598 0.0000
vt 0.6326 0.4504 0.0000
vt 0.5100 0.4396 0.0000
vt 0.7766 0.2888 0.0000
vt 0.6938 0.2649 0.0000
vt 0.8575 0.2595 0.0000
vt 0.2046 0.0567 0.0000
vt 0.2791 0.0319 0.0000
vt 0.3539 0.0555 0.0000
vt 0.1590 0.1206 0.0000
vt 0.3748 0.5805 0.0000
vt 0.3865 0.5041 0.0000
vt 0.3599 0.6560 0.0000
vt 0.3423 0.7308 0.0000
vt 0.3226 0.8052 0.0000
vt 0.3025 0.8804 0.0000
vt 0.4011 0.1968 0.0000
vt 0.4006 0.1186 0.0000
vt 0.4013 0.2737 0.0000
vt 0.3994 0.3505 0.0000
vt 0.3946 0.4273 0.0000
vt 0.2063 0.2623 0.0000
vt 0.1596 0.1992 0.0000
vt 0.3556 0.2608 0.0000
vt 0.2812 0.2858 0.0000
vt 0.6861 0.0399 0.0000
vt 0.9028 0.1021 0.0000
vt 0.9058 0.1882 0.0000
vt 0.7670 0.0104 0.0000
vt 0.8498 0.0342 0.0000
# 49 texture coords

g Wooden_Footstool_01
usemtl wire_135110008
s off
f 1/1/1 2/2/2 3/3/3 4/4/4 
f 5/5/5 6/6/6 2/2/2 1/1/1 
f 7/7/7 8/8/8 6/6/6 5/5/5 
f 9/9/9 10/10/10 8/8/8 7/7/7 
f 11/11/11 12/12/12 10/10/10 9/9/9 
f 13/13/13 14/14/14 12/15/12 11/16/11 
f 15/17/15 16/18/16 14/14/14 13/13/13 
f 17/19/17 18/20/18 16/18/16 15/17/15 
f 19/21/19 20/22/20 18/20/18 17/19/17 
f 4/4/4 3/3/3 20/22/20 19/21/19 
f 17/23/21 15/24/21 13/13/21 19/25/21 
f 21/26/22 22/27/22 23/28/22 24/29/22 
f 24/30/23 25/31/24 3/3/3 2/2/2 
f 21/32/25 24/30/23 2/2/2 6/6/6 
f 22/33/26 21/32/25 6/6/6 8/8/8 
f 23/34/27 22/33/26 8/8/8 10/10/10 
f 26/35/28 23/34/27 10/10/10 12/12/12 
f 27/36/29 26/37/28 12/15/12 14/14/14 
f 28/38/30 27/36/29 14/14/14 16/18/16 
f 29/39/31 28/38/30 16/18/16 18/20/18 
f 30/40/32 29/39/31 18/20/18 20/22/20 
f 25/31/24 30/40/32 20/22/20 3/3/3 
f 27/36/22 30/41/22 25/42/22 26/37/22 
f 26/37/22 25/42/22 24/29/22 23/28/22 
f 28/43/22 29/44/22 30/41/22 27/36/22 
f 9/45/21 1/46/21 4/47/21 11/16/21 
f 11/16/21 4/47/21 19/25/21 13/13/21 
f 7/48/21 5/49/21 1/46/21 9/45/21 
# 28 polygons

