# 3ds Max Wavefront OBJ Exporter v0.97b - (c)2007 guruware
# File Created: 27.11.2019 13:24:10

mtllib PickAxe_01.mtl

#
# object Pick_axe_
#

v  5.4681 1.4558 2.6182
v  5.5033 1.4546 2.6095
v  5.5033 1.4546 2.6135
v  5.4679 1.4558 2.6189
v  5.5033 1.4663 2.6135
v  5.5033 1.4663 2.6095
v  5.4681 1.4650 2.6182
v  5.4679 1.4650 2.6189
v  5.5033 1.4600 2.6135
v  5.4679 1.4601 2.6189
v  5.6876 1.4388 2.5720
v  5.6876 1.4388 2.5929
v  5.6678 1.4388 2.5929
v  5.6678 1.4388 2.5720
v  5.6876 1.4828 2.6152
v  5.6876 1.4828 2.5929
v  5.6678 1.4828 2.5929
v  5.6678 1.4828 2.6152
v  5.6584 1.4487 2.5819
v  5.6584 1.4597 2.5819
v  5.6605 1.4592 2.5720
v  5.6596 1.4592 2.6152
v  5.6584 1.4724 2.6052
v  5.6584 1.4597 2.6052
v  5.4683 1.4650 2.6174
v  5.5033 1.4663 2.6059
v  5.5033 1.4600 2.6059
v  5.4683 1.4601 2.6174
v  5.6876 1.4783 2.6277
v  5.6717 1.4783 2.6277
v  5.6782 1.4697 2.6281
v  5.6876 1.4736 2.6281
v  5.6652 1.4595 2.6277
v  5.6743 1.4603 2.6281
v  5.6717 1.4431 2.6277
v  5.6782 1.4509 2.6281
v  5.6876 1.4431 2.6277
v  5.6876 1.4471 2.6281
v  5.6876 1.4770 2.6158
v  5.6758 1.4721 2.6158
v  5.6686 1.4753 3.0264
v  5.6876 1.4815 3.0264
v  5.6709 1.4603 2.6158
v  5.6607 1.4603 3.0264
v  5.6758 1.4486 2.6158
v  5.6686 1.4454 3.0264
v  5.6876 1.4437 2.6158
v  5.6876 1.4392 3.0264
v  5.6678 1.4388 2.6152
v  5.6876 1.4388 2.6152
v  5.6876 1.4420 2.5699
v  5.6707 1.4420 2.5699
v  5.6762 1.4490 2.5699
v  5.6876 1.4443 2.5699
v  5.6645 1.4594 2.5699
v  5.6715 1.4604 2.5699
v  5.6707 1.4795 2.5699
v  5.6762 1.4717 2.5699
v  5.6876 1.4795 2.5699
v  5.6876 1.4764 2.5699
v  5.6876 1.4415 2.5720
v  5.6742 1.4470 2.5720
v  5.6723 1.4451 2.5441
v  5.6876 1.4388 2.5441
v  5.6687 1.4604 2.5720
v  5.6660 1.4604 2.5441
v  5.6742 1.4737 2.5720
v  5.6723 1.4756 2.5441
v  5.6876 1.4792 2.5720
v  5.6876 1.4819 2.5441
v  5.6678 1.4828 2.5720
v  5.6876 1.4828 2.5720
v  5.6584 1.4487 2.5929
v  5.6584 1.4724 2.5929
v  5.6584 1.4487 2.6052
v  5.6065 1.4505 2.5851
v  5.6065 1.4598 2.5851
v  5.6065 1.4706 2.6042
v  5.6065 1.4598 2.6042
v  5.6584 1.4724 2.5819
v  5.4681 1.4601 2.6182
v  5.4683 1.4558 2.6174
v  5.5033 1.4546 2.6059
v  5.6065 1.4706 2.5851
v  5.6065 1.4706 2.5941
v  5.6876 1.4604 2.5441
v  5.6065 1.4505 2.5941
v  5.6065 1.4505 2.6042
v  5.5689 1.4521 2.5914
v  5.5688 1.4599 2.5914
v  5.5689 1.4688 2.6062
v  5.5688 1.4599 2.6062
v  5.5689 1.4688 2.5914
v  5.5689 1.4688 2.5984
v  5.5689 1.4521 2.5984
v  5.5689 1.4521 2.6062
v  5.5348 1.4537 2.5980
v  5.5347 1.4600 2.5980
v  5.5348 1.4672 2.6091
v  5.5347 1.4600 2.6091
v  5.5348 1.4672 2.5980
v  5.5348 1.4672 2.6032
v  5.5348 1.4537 2.6032
v  5.5348 1.4537 2.6091
v  5.8720 1.4546 2.6135
v  5.8720 1.4546 2.6095
v  5.9072 1.4558 2.6182
v  5.9073 1.4558 2.6189
v  5.9072 1.4650 2.6182
v  5.8720 1.4663 2.6095
v  5.8720 1.4663 2.6135
v  5.9073 1.4650 2.6189
v  5.9073 1.4601 2.6189
v  5.8720 1.4600 2.6135
v  5.7075 1.4388 2.5929
v  5.7075 1.4388 2.5720
v  5.7075 1.4828 2.5929
v  5.7075 1.4828 2.6152
v  5.7147 1.4592 2.5720
v  5.7169 1.4597 2.5819
v  5.7168 1.4487 2.5819
v  5.7157 1.4592 2.6152
v  5.7169 1.4597 2.6052
v  5.7168 1.4724 2.6052
v  5.8720 1.4600 2.6059
v  5.8720 1.4663 2.6059
v  5.9070 1.4650 2.6174
v  5.9070 1.4601 2.6174
v  5.6971 1.4697 2.6281
v  5.7035 1.4783 2.6277
v  5.7010 1.4603 2.6281
v  5.7101 1.4595 2.6277
v  5.6971 1.4509 2.6281
v  5.7035 1.4431 2.6277
v  5.7067 1.4753 3.0264
v  5.6994 1.4721 2.6158
v  5.7145 1.4603 3.0264
v  5.7043 1.4603 2.6158
v  5.7066 1.4454 3.0264
v  5.6994 1.4486 2.6158
v  5.7075 1.4388 2.6152
v  5.6990 1.4490 2.5699
v  5.7046 1.4420 2.5699
v  5.7037 1.4604 2.5699
v  5.7107 1.4594 2.5699
v  5.6990 1.4717 2.5699
v  5.7046 1.4795 2.5699
v  5.7029 1.4451 2.5441
v  5.7010 1.4470 2.5720
v  5.7093 1.4604 2.5441
v  5.7065 1.4604 2.5720
v  5.7029 1.4756 2.5441
v  5.7010 1.4737 2.5720
v  5.7075 1.4828 2.5720
v  5.7168 1.4487 2.5929
v  5.7168 1.4724 2.5929
v  5.7168 1.4487 2.6052
v  5.7688 1.4598 2.5851
v  5.7687 1.4505 2.5851
v  5.7688 1.4598 2.6042
v  5.7687 1.4706 2.6042
v  5.7168 1.4724 2.5819
v  5.9072 1.4601 2.6182
v  5.8720 1.4546 2.6059
v  5.9070 1.4558 2.6174
v  5.7687 1.4706 2.5941
v  5.7687 1.4706 2.5851
v  5.7687 1.4505 2.5941
v  5.7687 1.4505 2.6042
v  5.8064 1.4599 2.5914
v  5.8064 1.4521 2.5914
v  5.8064 1.4599 2.6062
v  5.8064 1.4688 2.6062
v  5.8064 1.4688 2.5984
v  5.8064 1.4688 2.5914
v  5.8064 1.4521 2.5984
v  5.8064 1.4521 2.6062
v  5.8405 1.4600 2.5980
v  5.8405 1.4537 2.5980
v  5.8405 1.4600 2.6091
v  5.8405 1.4672 2.6091
v  5.8405 1.4672 2.6032
v  5.8405 1.4672 2.5980
v  5.8405 1.4537 2.6032
v  5.8405 1.4537 2.6091
v  5.6876 1.4603 3.0264
# 186 vertices

vn -0.0354 -0.9994 -0.0013
vn -0.0318 -0.9995 -0.0007
vn -0.0321 -0.9995 -0.0007
vn -0.0353 -0.9994 -0.0013
vn -0.0336 0.9994 -0.0008
vn -0.0334 0.9994 -0.0007
vn -0.0369 0.9993 -0.0014
vn -0.0368 0.9993 -0.0014
vn 0.1519 0.0002 0.9884
vn 0.1452 0.0003 0.9894
vn 0.1453 0.0000 0.9894
vn 0.1519 0.0000 0.9884
vn 0.0000 -1.0000 -0.0000
vn -0.3965 -0.9180 -0.0000
vn -0.2955 -0.9554 -0.0000
vn 0.0000 1.0000 -0.0000
vn -0.4074 0.9133 -0.0000
vn -0.3060 0.9520 -0.0000
vn -0.6396 -0.1414 -0.7556
vn -0.5574 -0.0048 -0.8302
vn -0.9059 -0.0202 -0.4230
vn -0.8901 -0.2062 -0.4065
vn -0.9265 -0.0230 0.3757
vn -0.9031 0.2048 0.3773
vn -0.6453 0.1441 0.7502
vn -0.5596 -0.0055 0.8288
vn -0.3126 0.0002 -0.9499
vn -0.2777 0.0003 -0.9607
vn -0.2784 -0.0001 -0.9605
vn -0.3126 -0.0001 -0.9499
vn -0.0098 0.0639 0.9979
vn -0.0496 0.0183 0.9986
vn -0.0478 -0.0194 0.9987
vn -0.0110 -0.0715 0.9974
vn -0.3375 0.9413 -0.0118
vn -0.9026 0.4300 -0.0208
vn -0.9023 -0.4307 -0.0208
vn -0.3372 -0.9414 -0.0118
vn -0.8545 -0.3423 0.3908
vn 0.0000 -0.9448 0.3277
vn 0.0000 0.9407 0.3394
vn -0.8712 0.3025 0.3866
vn 0.3698 -0.8973 -0.2411
vn 0.3693 0.8971 -0.2423
vn 0.8963 0.3716 -0.2420
vn 0.8967 -0.3711 -0.2415
vn 0.0000 0.0000 -1.0000
vn -0.3794 -0.9210 0.0887
vn -0.9202 -0.3812 0.0893
vn -0.9202 0.3812 0.0893
vn -0.3794 0.9210 0.0887
vn 0.0000 -0.5457 -0.8380
vn -0.4499 -0.1596 -0.8787
vn -0.4613 0.1418 -0.8758
vn 0.0000 0.5311 -0.8473
vn 0.2390 0.5802 0.7786
vn 0.2395 -0.5812 0.7777
vn 0.5805 -0.2404 0.7780
vn 0.5800 0.2403 0.7783
vn -0.4803 -0.8771 -0.0000
vn -0.4117 -0.9113 -0.0000
vn -0.4877 0.8730 -0.0000
vn -0.4232 0.9060 -0.0000
vn -0.6481 -0.1670 0.7430
vn -0.9040 -0.2365 0.3562
vn -0.1115 -0.0004 -0.9938
vn -0.1130 -0.0000 -0.9936
vn 0.0160 -0.0001 0.9999
vn 0.0172 0.0000 0.9999
vn -0.6367 0.1221 -0.7614
vn -0.8878 0.1783 -0.4242
vn -0.9740 -0.0001 -0.2264
vn -0.0356 -0.9994 -0.0014
vn -0.0312 -0.9995 -0.0006
vn -0.4924 0.8703 -0.0000
vn -0.0404 0.9992 -0.0000
vn -0.0408 0.9992 -0.0000
vn -0.4756 -0.8797 -0.0000
vn -0.9740 -0.0001 -0.2265
vn -0.0000 0.0000 -1.0000
vn -0.0389 -0.9992 -0.0000
vn -0.0390 -0.9992 -0.0000
vn -0.0409 0.9992 -0.0000
vn 0.0160 0.0001 0.9999
vn -0.1115 0.0003 -0.9938
vn -0.1771 -0.0006 -0.9842
vn -0.1776 -0.0000 -0.9841
vn 0.0685 -0.0002 0.9977
vn 0.0690 0.0000 0.9976
vn -0.0385 -0.9993 -0.0000
vn -0.0470 0.9989 -0.0000
vn -0.0448 -0.9990 -0.0000
vn -0.0470 0.9989 0.0000
vn 0.0685 0.0003 0.9977
vn -0.1771 0.0005 -0.9842
vn -0.2169 -0.0006 -0.9762
vn -0.2176 -0.0000 -0.9760
vn 0.1102 -0.0003 0.9939
vn 0.1110 0.0000 0.9938
vn -0.0397 0.9992 -0.0000
vn -0.0384 0.9993 0.0000
vn -0.0366 -0.9993 0.0000
vn -0.0360 -0.9994 -0.0000
vn -0.0378 0.9993 0.0000
vn 0.1102 0.0003 0.9939
vn -0.2169 0.0005 -0.9762
vn -0.0377 -0.9993 0.0000
vn -0.2777 -0.0004 -0.9607
vn 0.1452 -0.0002 0.9894
vn -0.0328 0.9995 -0.0006
vn -0.3126 -0.0003 -0.9499
vn 0.1519 -0.0001 0.9884
vn -0.0371 0.9993 -0.0015
vn 0.0321 -0.9995 -0.0007
vn 0.0318 -0.9995 -0.0007
vn 0.0354 -0.9994 -0.0013
vn 0.0353 -0.9994 -0.0013
vn 0.0369 0.9993 -0.0014
vn 0.0334 0.9994 -0.0007
vn 0.0336 0.9994 -0.0008
vn 0.0368 0.9993 -0.0014
vn -0.1519 0.0002 0.9884
vn -0.1519 0.0000 0.9884
vn -0.1453 0.0000 0.9894
vn -0.1452 0.0003 0.9894
vn 0.3965 -0.9180 -0.0000
vn 0.2955 -0.9554 -0.0000
vn 0.4074 0.9133 -0.0000
vn 0.3060 0.9520 -0.0000
vn 0.9059 -0.0202 -0.4230
vn 0.5574 -0.0048 -0.8302
vn 0.6395 -0.1415 -0.7556
vn 0.8901 -0.2062 -0.4065
vn 0.9265 -0.0230 0.3757
vn 0.5596 -0.0055 0.8288
vn 0.6454 0.1441 0.7502
vn 0.9031 0.2048 0.3773
vn 0.2784 -0.0001 -0.9605
vn 0.2776 0.0003 -0.9607
vn 0.3126 0.0002 -0.9499
vn 0.3126 -0.0001 -0.9499
vn 0.0098 0.0639 0.9979
vn 0.0496 0.0183 0.9986
vn 0.0478 -0.0194 0.9987
vn 0.0110 -0.0715 0.9974
vn 0.3375 0.9413 -0.0118
vn 0.9026 0.4300 -0.0208
vn 0.9023 -0.4307 -0.0208
vn 0.3372 -0.9414 -0.0118
vn 0.8545 -0.3423 0.3908
vn 0.8712 0.3025 0.3866
vn -0.3698 -0.8973 -0.2411
vn -0.3693 0.8971 -0.2423
vn -0.8963 0.3716 -0.2420
vn -0.8967 -0.3711 -0.2415
vn 0.3794 -0.9210 0.0887
vn 0.9202 -0.3812 0.0893
vn 0.9202 0.3812 0.0893
vn 0.3794 0.9210 0.0887
vn 0.4499 -0.1596 -0.8787
vn 0.4613 0.1418 -0.8758
vn -0.2390 0.5802 0.7786
vn -0.2395 -0.5812 0.7777
vn -0.5805 -0.2404 0.7780
vn -0.5800 0.2403 0.7783
vn 0.4803 -0.8771 0.0000
vn 0.4117 -0.9113 0.0000
vn 0.4877 0.8730 0.0000
vn 0.4232 0.9060 0.0000
vn 0.6481 -0.1670 0.7430
vn 0.9040 -0.2365 0.3562
vn 0.1130 -0.0000 -0.9936
vn 0.1115 -0.0004 -0.9938
vn -0.0171 0.0000 0.9999
vn -0.0160 -0.0001 0.9999
vn 0.6367 0.1221 -0.7614
vn 0.8878 0.1783 -0.4242
vn 0.9740 -0.0001 -0.2264
vn 0.0312 -0.9995 -0.0005
vn 0.0356 -0.9994 -0.0013
vn 0.0408 0.9992 -0.0000
vn 0.0404 0.9992 -0.0000
vn 0.4924 0.8703 0.0000
vn 0.4756 -0.8796 0.0000
vn 0.9740 -0.0001 -0.2265
vn 0.0389 -0.9992 0.0000
vn 0.0390 -0.9992 0.0000
vn 0.0409 0.9992 0.0000
vn -0.0160 0.0001 0.9999
vn 0.1114 0.0003 -0.9938
vn 0.1775 -0.0000 -0.9841
vn 0.1771 -0.0006 -0.9842
vn -0.0689 0.0000 0.9976
vn -0.0685 -0.0002 0.9977
vn 0.0385 -0.9993 0.0000
vn 0.0470 0.9989 0.0000
vn 0.0470 0.9989 -0.0000
vn 0.0448 -0.9990 -0.0000
vn -0.0685 0.0003 0.9977
vn 0.1771 0.0005 -0.9842
vn 0.0448 -0.9990 0.0000
vn 0.2175 -0.0000 -0.9761
vn 0.2169 -0.0006 -0.9762
vn -0.1110 0.0000 0.9938
vn -0.1102 -0.0003 0.9939
vn 0.0384 0.9993 -0.0000
vn 0.0397 0.9992 -0.0000
vn 0.0366 -0.9993 -0.0000
vn 0.0360 -0.9994 -0.0000
vn 0.0378 0.9993 0.0000
vn -0.1102 0.0003 0.9939
vn 0.2168 0.0005 -0.9762
vn 0.0377 -0.9993 0.0000
vn 0.2776 -0.0004 -0.9607
vn -0.1452 -0.0002 0.9894
vn 0.0328 0.9995 -0.0006
vn 0.3126 -0.0003 -0.9499
vn -0.1519 -0.0001 0.9884
vn 0.0371 0.9993 -0.0015
vn -0.0000 0.0009 1.0000
vn 0.0000 0.0009 1.0000
# 221 vertex normals

vt 0.9623 0.1064 0.0000
vt 0.8901 0.1212 0.0000
vt 0.8908 0.1131 0.0000
vt 0.9630 0.1068 0.0000
vt 0.3407 0.4962 0.0000
vt 0.3322 0.4980 0.0000
vt 0.3456 0.4181 0.0000
vt 0.3492 0.4186 0.0000
vt 0.8905 0.1019 0.0000
vt 0.9663 0.1004 0.0000
vt 0.4947 0.1846 0.0000
vt 0.4943 0.1419 0.0000
vt 0.5374 0.1420 0.0000
vt 0.5333 0.1813 0.0000
vt 0.4298 0.9265 0.0000
vt 0.3813 0.9313 0.0000
vt 0.3756 0.8846 0.0000
vt 0.4223 0.8823 0.0000
vt 0.5671 0.1704 0.0000
vt 0.5768 0.1924 0.0000
vt 0.5658 0.2071 0.0000
vt 0.4467 0.8340 0.0000
vt 0.4035 0.8461 0.0000
vt 0.4288 0.8294 0.0000
vt 0.3424 0.4181 0.0000
vt 0.3245 0.4987 0.0000
vt 0.3108 0.4960 0.0000
vt 0.3393 0.4123 0.0000
vt 0.4604 0.9213 0.0000
vt 0.4519 0.8885 0.0000
vt 0.4757 0.8924 0.0000
vt 0.4706 0.9170 0.0000
vt 0.4733 0.8512 0.0000
vt 0.4844 0.8691 0.0000
vt 0.5546 0.0558 0.0000
vt 0.5247 0.0731 0.0000
vt 0.5190 0.0535 0.0000
vt 0.5407 0.0454 0.0000
vt 0.4936 0.0678 0.0000
vt 0.4936 0.0571 0.0000
vt 0.6096 0.9008 0.0000
vt 0.4915 0.7688 0.0000
vt 0.6176 0.7979 0.0000
vt 0.7658 0.8712 0.0000
vt 0.4546 0.5980 0.0000
vt 0.5255 0.6530 0.0000
vt 0.5234 0.4369 0.0000
vt 0.6149 0.5094 0.0000
vt 0.6335 0.3555 0.0000
vt 0.7538 0.4618 0.0000
vt 0.5716 0.0783 0.0000
vt 0.5340 0.0992 0.0000
vt 0.4937 0.0970 0.0000
vt 0.5046 0.9007 0.0000
vt 0.4965 0.9274 0.0000
vt 0.4937 0.0305 0.0000
vt 0.5148 0.0272 0.0000
vt 0.5382 0.0213 0.0000
vt 0.5118 0.8739 0.0000
vt 0.4948 0.1940 0.0000
vt 0.5290 0.1890 0.0000
vt 0.5227 0.2059 0.0000
vt 0.4947 0.1994 0.0000
vt 0.5571 0.2138 0.0000
vt 0.5445 0.2219 0.0000
vt 0.2892 0.8710 0.0000
vt 0.3258 0.9003 0.0000
vt 0.3063 0.9090 0.0000
vt 0.2860 0.8872 0.0000
vt 0.3250 0.9380 0.0000
vt 0.3177 0.9367 0.0000
vt 0.3728 0.2366 0.0000
vt 0.4209 0.2416 0.0000
vt 0.4147 0.3350 0.0000
vt 0.3710 0.3201 0.0000
vt 0.5014 0.3230 0.0000
vt 0.5099 0.3672 0.0000
vt 0.4249 0.3882 0.0000
vt 0.0823 0.3074 0.0000
vt 0.1223 0.2775 0.0000
vt 0.1619 0.3516 0.0000
vt 0.1342 0.3892 0.0000
vt 0.1720 0.2518 0.0000
vt 0.1972 0.3307 0.0000
vt 0.2945 0.8609 0.0000
vt 0.3340 0.8950 0.0000
vt 0.3353 0.9383 0.0000
vt 0.5200 0.2119 0.0000
vt 0.4947 0.2056 0.0000
vt 0.3121 0.9416 0.0000
vt 0.3000 0.9130 0.0000
vt 0.2792 0.8902 0.0000
vt 0.5425 0.2284 0.0000
vt 0.5678 0.1432 0.0000
vt 0.3701 0.8512 0.0000
vt 0.5683 0.1136 0.0000
vt 0.5790 0.0930 0.0000
vt 0.6758 0.1626 0.0000
vt 0.6790 0.1812 0.0000
vt 0.3746 0.7291 0.0000
vt 0.3977 0.7227 0.0000
vt 0.3398 0.8563 0.0000
vt 0.3100 0.8483 0.0000
vt 0.3528 0.4119 0.0000
vt 0.3462 0.4088 0.0000
vt 0.9619 0.1059 0.0000
vt 0.8902 0.1285 0.0000
vt 0.3339 0.7368 0.0000
vt 0.3531 0.7340 0.0000
vt 0.9674 0.1109 0.0000
vt 0.9696 0.1052 0.0000
vt 0.3524 0.3799 0.0000
vt 0.2160 0.3894 0.0000
vt 0.6757 0.1449 0.0000
vt 0.6771 0.1248 0.0000
vt 0.6794 0.1062 0.0000
vt 0.3099 0.7361 0.0000
vt 0.7541 0.1545 0.0000
vt 0.7571 0.1701 0.0000
vt 0.3622 0.6441 0.0000
vt 0.3819 0.6401 0.0000
vt 0.3300 0.6508 0.0000
vt 0.3452 0.6478 0.0000
vt 0.7545 0.1402 0.0000
vt 0.7552 0.1243 0.0000
vt 0.7556 0.1085 0.0000
vt 0.3099 0.6504 0.0000
vt 0.8250 0.1433 0.0000
vt 0.8280 0.1558 0.0000
vt 0.3508 0.5673 0.0000
vt 0.3670 0.5645 0.0000
vt 0.3266 0.5721 0.0000
vt 0.3381 0.5700 0.0000
vt 0.8252 0.1324 0.0000
vt 0.8257 0.1204 0.0000
vt 0.8253 0.1075 0.0000
vt 0.3102 0.5716 0.0000
vt 0.8939 0.1391 0.0000
vt 0.3547 0.4946 0.0000
vt 0.1011 0.1898 0.0000
vt 0.1051 0.1966 0.0000
vt 0.0373 0.2254 0.0000
vt 0.0375 0.2258 0.0000
vt 0.1600 0.4274 0.0000
vt 0.1740 0.5071 0.0000
vt 0.1652 0.5057 0.0000
vt 0.1573 0.4278 0.0000
vt 0.0313 0.2219 0.0000
vt 0.0958 0.1801 0.0000
vt 0.4513 0.1420 0.0000
vt 0.4565 0.1811 0.0000
vt 0.1648 0.8953 0.0000
vt 0.1628 0.9423 0.0000
vt 0.1140 0.9412 0.0000
vt 0.1181 0.8965 0.0000
vt 0.4243 0.2068 0.0000
vt 0.4145 0.1923 0.0000
vt 0.4234 0.1704 0.0000
vt 0.0901 0.8502 0.0000
vt 0.1075 0.8442 0.0000
vt 0.1340 0.8589 0.0000
vt 0.1954 0.5035 0.0000
vt 0.1819 0.5074 0.0000
vt 0.1616 0.4276 0.0000
vt 0.1658 0.4211 0.0000
vt 0.0831 0.9383 0.0000
vt 0.0727 0.9349 0.0000
vt 0.0657 0.9108 0.0000
vt 0.0891 0.9050 0.0000
vt 0.0552 0.8882 0.0000
vt 0.0649 0.8695 0.0000
vt 0.4325 0.0557 0.0000
vt 0.4466 0.0453 0.0000
vt 0.4682 0.0534 0.0000
vt 0.4625 0.0730 0.0000
vt 0.9578 0.8892 0.0000
vt 0.9017 0.8221 0.0000
vt 0.9700 0.6218 0.0000
vt 0.8691 0.6684 0.0000
vt 0.9119 0.4549 0.0000
vt 0.8672 0.5193 0.0000
vt 0.7689 0.3531 0.0000
vt 0.4153 0.0784 0.0000
vt 0.4532 0.0992 0.0000
vt 0.0376 0.9213 0.0000
vt 0.0477 0.9473 0.0000
vt 0.4726 0.0271 0.0000
vt 0.4492 0.0212 0.0000
vt 0.0282 0.8952 0.0000
vt 0.4667 0.2057 0.0000
vt 0.4607 0.1887 0.0000
vt 0.4447 0.2215 0.0000
vt 0.4324 0.2134 0.0000
vt 0.2496 0.8748 0.0000
vt 0.2541 0.8906 0.0000
vt 0.2358 0.9140 0.0000
vt 0.2155 0.9071 0.0000
vt 0.2271 0.9426 0.0000
vt 0.2199 0.9445 0.0000
vt 0.3266 0.3227 0.0000
vt 0.3222 0.2390 0.0000
vt 0.2828 0.3419 0.0000
vt 0.2762 0.2458 0.0000
vt 0.2378 0.3273 0.0000
vt 0.2274 0.2440 0.0000
vt 0.2436 0.8653 0.0000
vt 0.2070 0.9025 0.0000
vt 0.2093 0.9456 0.0000
vt 0.4692 0.2116 0.0000
vt 0.2331 0.9470 0.0000
vt 0.2423 0.9174 0.0000
vt 0.2612 0.8930 0.0000
vt 0.4467 0.2280 0.0000
vt 0.4210 0.1435 0.0000
vt 0.1676 0.8616 0.0000
vt 0.4186 0.1138 0.0000
vt 0.4070 0.0933 0.0000
vt 0.3148 0.1832 0.0000
vt 0.3159 0.1646 0.0000
vt 0.1307 0.7351 0.0000
vt 0.1540 0.7401 0.0000
vt 0.1982 0.8644 0.0000
vt 0.2272 0.8542 0.0000
vt 0.1527 0.4217 0.0000
vt 0.1589 0.4182 0.0000
vt 0.1079 0.2033 0.0000
vt 0.0367 0.2250 0.0000
vt 0.1755 0.7435 0.0000
vt 0.1943 0.7449 0.0000
vt 0.0345 0.2320 0.0000
vt 0.0304 0.2279 0.0000
vt 0.3134 0.1473 0.0000
vt 0.3090 0.1278 0.0000
vt 0.3045 0.1094 0.0000
vt 0.2178 0.7430 0.0000
vt 0.2400 0.1841 0.0000
vt 0.2390 0.1685 0.0000
vt 0.1437 0.6523 0.0000
vt 0.1637 0.6548 0.0000
vt 0.1812 0.6571 0.0000
vt 0.1972 0.6587 0.0000
vt 0.2351 0.1554 0.0000
vt 0.2305 0.1406 0.0000
vt 0.2260 0.1255 0.0000
vt 0.2176 0.6571 0.0000
vt 0.1726 0.1952 0.0000
vt 0.1703 0.1826 0.0000
vt 0.1509 0.5765 0.0000
vt 0.1673 0.5774 0.0000
vt 0.1804 0.5791 0.0000
vt 0.1922 0.5802 0.0000
vt 0.1664 0.1730 0.0000
vt 0.1617 0.1623 0.0000
vt 0.1569 0.1504 0.0000
vt 0.2085 0.5777 0.0000
vt 0.1101 0.2143 0.0000
vt 0.1510 0.5052 0.0000
vt 0.6954 0.6686 0.0000
# 258 texture coords

g Pick_axe_
usemtl wire_135110008
s off
f 1/1/1 2/2/2 3/3/3 4/4/4 
f 5/5/5 6/6/6 7/7/7 8/8/8 
f 4/4/9 3/3/10 9/9/11 10/10/12 
f 11/11/13 12/12/13 13/13/14 14/14/15 
f 15/15/16 16/16/16 17/17/17 18/18/18 
f 19/19/19 20/20/20 21/21/21 14/14/22 
f 22/22/23 18/18/24 23/23/25 24/24/26 
f 25/25/27 26/26/28 27/27/29 28/28/30 
f 29/29/31 30/30/31 31/31/31 32/32/31 
f 30/30/32 33/33/32 34/34/32 31/31/32 
f 33/35/33 35/36/33 36/37/33 34/38/33 
f 35/36/34 37/39/34 38/40/34 36/37/34 
f 39/41/35 40/42/35 41/43/35 42/44/35 
f 40/42/36 43/45/36 44/46/36 41/43/36 
f 43/45/37 45/47/37 46/48/37 44/46/37 
f 45/47/38 47/49/38 48/50/38 46/48/38 
f 22/51/39 49/52/39 35/36/39 33/35/39 
f 49/52/40 50/53/40 37/39/40 35/36/40 
f 15/15/41 18/18/41 30/30/41 29/29/41 
f 18/18/42 22/22/42 33/33/42 30/30/42 
f 40/54/43 39/55/43 32/32/43 31/31/43 
f 47/56/44 45/57/44 36/37/44 38/40/44 
f 45/57/45 43/58/45 34/38/45 36/37/45 
f 43/59/46 40/54/46 31/31/46 34/34/46 
f 51/60/47 52/61/47 53/62/47 54/63/47 
f 52/61/47 55/64/47 56/65/47 53/62/47 
f 55/66/47 57/67/47 58/68/47 56/69/47 
f 57/67/47 59/70/47 60/71/47 58/68/47 
f 61/72/48 62/73/48 63/74/48 64/75/48 
f 62/76/49 65/77/49 66/78/49 63/74/49 
f 65/79/50 67/80/50 68/81/50 66/82/50 
f 67/80/51 69/83/51 70/84/51 68/81/51 
f 11/11/52 14/14/52 52/61/52 51/60/52 
f 14/14/53 21/21/53 55/64/53 52/61/53 
f 21/85/54 71/86/54 57/67/54 55/66/54 
f 71/86/55 72/87/55 59/70/55 57/67/55 
f 62/88/56 61/89/56 54/63/56 53/62/56 
f 69/90/57 67/91/57 58/68/57 60/71/57 
f 67/91/58 65/92/58 56/69/58 58/68/58 
f 65/93/59 62/88/59 53/62/59 56/65/59 
f 19/19/60 14/14/15 13/13/14 73/94/61 
f 23/23/62 18/18/18 17/17/17 74/95/63 
f 75/96/64 49/52/65 22/51/23 24/97/26 
f 76/98/66 77/99/67 20/20/20 19/19/19 
f 78/100/68 79/101/69 24/24/26 23/23/25 
f 80/102/70 71/86/71 21/85/21 20/103/20 
f 10/104/72 8/8/72 7/7/72 81/105/72 
f 82/106/73 83/107/74 2/2/2 1/1/1 
f 74/95/63 80/102/75 84/108/76 85/109/77 
f 50/53/13 49/52/15 13/13/14 12/12/13 
f 72/87/16 71/86/18 17/17/17 16/16/16 
f 13/13/14 49/52/15 75/96/78 73/94/61 
f 17/17/17 71/86/18 80/102/75 74/95/63 
f 7/7/72 25/25/79 28/28/72 81/105/72 
f 28/110/72 82/106/72 1/1/79 81/111/72 
f 1/1/79 4/4/79 10/10/72 81/111/72 
f 63/74/47 66/78/47 86/112/80 64/75/80 
f 68/81/47 70/84/47 86/113/80 66/82/47 
f 87/114/81 73/94/61 75/96/78 88/115/82 
f 23/23/62 74/95/63 85/109/77 78/100/83 
f 88/115/84 75/96/64 24/97/26 79/116/69 
f 84/108/85 80/102/70 20/103/20 77/117/67 
f 89/118/86 90/119/87 77/99/67 76/98/66 
f 91/120/88 92/121/89 79/101/69 78/100/68 
f 76/98/90 19/19/60 73/94/61 87/114/81 
f 93/122/91 94/123/91 85/109/77 84/108/76 
f 95/124/92 87/114/81 88/115/82 96/125/92 
f 78/100/83 85/109/77 94/123/91 91/120/93 
f 96/125/94 88/115/84 79/116/69 92/126/89 
f 93/122/95 84/108/85 77/117/67 90/127/87 
f 89/118/92 76/98/90 87/114/81 95/124/92 
f 97/128/96 98/129/97 90/119/87 89/118/86 
f 99/130/98 100/131/99 92/121/89 91/120/88 
f 101/132/100 102/133/101 94/123/91 93/122/91 
f 103/134/102 95/124/92 96/125/92 104/135/103 
f 91/120/93 94/123/91 102/133/101 99/130/104 
f 104/135/105 96/125/94 92/126/89 100/136/99 
f 101/132/106 93/122/95 90/127/87 98/137/97 
f 97/128/107 89/118/92 95/124/92 103/134/102 
f 83/107/108 27/138/29 98/129/97 97/128/96 
f 5/5/109 9/139/11 100/131/99 99/130/98 
f 26/26/110 6/6/6 102/133/101 101/132/100 
f 2/2/2 103/134/102 104/135/103 3/3/3 
f 99/130/104 102/133/101 6/6/6 5/5/5 
f 3/3/10 104/135/105 100/136/99 9/9/11 
f 26/26/28 101/132/106 98/137/97 27/27/29 
f 83/107/74 97/128/107 103/134/102 2/2/2 
f 82/106/111 28/110/30 27/138/29 83/107/108 
f 8/8/112 10/104/12 9/139/11 5/5/109 
f 25/25/113 7/7/7 6/6/6 26/26/110 
f 105/140/114 106/141/115 107/142/116 108/143/117 
f 109/144/118 110/145/119 111/146/120 112/147/121 
f 108/143/122 113/148/123 114/149/124 105/140/125 
f 115/150/126 12/12/13 11/11/13 116/151/127 
f 117/152/128 16/153/16 15/154/16 118/155/129 
f 119/156/130 120/157/131 121/158/132 116/151/133 
f 122/159/134 123/160/135 124/161/136 118/155/137 
f 125/162/138 126/163/139 127/164/140 128/165/141 
f 29/166/142 32/167/142 129/168/142 130/169/142 
f 130/169/143 129/168/143 131/170/143 132/171/143 
f 132/172/144 131/173/144 133/174/144 134/175/144 
f 134/175/145 133/174/145 38/40/145 37/39/145 
f 39/176/146 42/44/146 135/177/146 136/178/146 
f 136/178/147 135/177/147 137/179/147 138/180/147 
f 138/180/148 137/179/148 139/181/148 140/182/148 
f 140/182/149 139/181/149 48/50/149 47/49/149 
f 122/183/150 132/172/150 134/175/150 141/184/150 
f 141/184/40 134/175/40 37/39/40 50/53/40 
f 15/154/41 29/166/41 130/169/41 118/155/41 
f 118/155/151 130/169/151 132/171/151 122/159/151 
f 136/185/152 129/168/152 32/167/152 39/186/152 
f 47/56/153 38/40/153 133/174/153 140/187/153 
f 140/187/154 133/174/154 131/173/154 138/188/154 
f 138/189/155 131/170/155 129/168/155 136/185/155 
f 51/60/47 54/63/47 142/190/47 143/191/47 
f 143/191/47 142/190/47 144/192/47 145/193/47 
f 145/194/47 144/195/47 146/196/47 147/197/47 
f 147/197/47 146/196/47 60/198/47 59/199/47 
f 61/72/156 64/75/156 148/200/156 149/201/156 
f 149/201/157 148/200/157 150/202/157 151/203/157 
f 151/203/158 150/202/158 152/204/158 153/205/158 
f 153/205/159 152/204/159 70/84/159 69/83/159 
f 11/11/52 51/60/52 143/191/52 116/151/52 
f 116/151/160 143/191/160 145/193/160 119/156/160 
f 119/206/161 145/194/161 147/197/161 154/207/161 
f 154/207/55 147/197/55 59/199/55 72/208/55 
f 149/209/162 142/190/162 54/63/162 61/89/162 
f 69/210/163 60/198/163 146/196/163 153/211/163 
f 153/211/164 146/196/164 144/195/164 151/212/164 
f 151/213/165 144/192/165 142/190/165 149/209/165 
f 121/158/166 155/214/167 115/150/126 116/151/127 
f 124/161/168 156/215/169 117/152/128 118/155/129 
f 157/216/170 123/217/135 122/183/134 141/184/171 
f 120/157/131 158/218/172 159/219/173 121/158/132 
f 123/160/135 160/220/174 161/221/175 124/161/136 
f 162/222/176 120/223/131 119/206/130 154/207/177 
f 113/224/178 163/225/178 109/144/178 112/147/178 
f 106/141/115 164/226/179 165/227/180 107/142/116 
f 156/215/169 166/228/181 167/229/182 162/222/183 
f 115/150/126 141/184/127 50/53/13 12/12/13 
f 117/152/128 154/207/129 72/208/16 16/153/16 
f 115/150/126 155/214/167 157/216/184 141/184/127 
f 117/152/128 156/215/169 162/222/183 154/207/129 
f 109/144/178 163/225/178 128/165/185 127/164/185 
f 128/230/185 163/231/178 107/142/178 165/227/178 
f 113/148/178 108/143/178 107/142/178 163/231/178 
f 86/112/80 150/202/80 148/200/80 64/75/80 
f 86/113/80 70/84/47 152/204/47 150/202/80 
f 168/232/186 169/233/187 157/216/184 155/214/167 
f 166/228/181 156/215/169 124/161/168 161/221/188 
f 169/233/189 160/234/174 123/217/135 157/216/170 
f 167/229/190 158/235/172 120/223/131 162/222/176 
f 158/218/172 170/236/191 171/237/192 159/219/173 
f 160/220/174 172/238/193 173/239/194 161/221/175 
f 159/219/195 168/232/186 155/214/167 121/158/166 
f 166/228/181 174/240/196 175/241/197 167/229/182 
f 176/242/198 177/243/198 169/233/187 168/232/186 
f 174/240/196 166/228/181 161/221/188 173/239/196 
f 177/243/199 172/244/193 160/234/174 169/233/189 
f 175/241/200 170/245/191 158/235/172 167/229/190 
f 171/237/201 176/242/198 168/232/186 159/219/195 
f 170/236/191 178/246/202 179/247/203 171/237/192 
f 172/238/193 180/248/204 181/249/205 173/239/194 
f 174/240/196 182/250/206 183/251/207 175/241/197 
f 184/252/208 185/253/209 177/243/198 176/242/198 
f 182/250/206 174/240/196 173/239/196 181/249/210 
f 185/253/211 180/254/204 172/244/193 177/243/199 
f 183/251/212 178/255/202 170/245/191 175/241/200 
f 179/247/213 184/252/208 176/242/198 171/237/201 
f 178/246/202 125/256/138 164/226/214 179/247/203 
f 180/248/204 114/257/124 111/146/215 181/249/205 
f 182/250/206 110/145/119 126/163/216 183/251/207 
f 106/141/115 105/140/114 185/253/209 184/252/208 
f 110/145/119 182/250/206 181/249/210 111/146/120 
f 105/140/125 114/149/124 180/254/204 185/253/211 
f 126/163/139 125/162/138 178/255/202 183/251/212 
f 164/226/179 106/141/115 184/252/208 179/247/213 
f 125/256/138 128/230/141 165/227/217 164/226/214 
f 114/257/124 113/224/123 112/147/218 111/146/215 
f 110/145/119 109/144/118 127/164/219 126/163/216 
f 137/179/220 135/177/220 42/44/220 186/258/220 
f 42/44/221 41/43/221 44/46/221 186/258/221 
f 44/46/221 46/48/221 48/50/221 186/258/221 
f 48/50/220 139/181/220 137/179/220 186/258/220 
# 184 polygons

