# 3ds Max Wavefront OBJ Exporter v0.97b - (c)2007 guruware
# File Created: 01.12.2019 02:30:20

mtllib Book_Closed.mtl

#
# object Book_Closed
#

v  31.2706 0.0304 0.1376
v  31.2706 0.0304 -0.1376
v  31.4297 0.0304 -0.1376
v  31.4297 0.0304 0.1376
v  31.2706 0.0918 0.1376
v  31.4297 0.0918 0.1376
v  31.4297 0.0918 -0.1376
v  31.2706 0.0918 -0.1376
v  31.2734 0.0376 0.1337
v  31.4297 0.0376 0.1337
v  31.4297 0.0455 0.1337
v  31.2734 0.0482 0.1337
v  31.4550 0.0304 0.1376
v  31.4550 0.0304 -0.1376
v  31.4634 0.0425 -0.1376
v  31.4634 0.0425 0.1376
v  31.4489 0.0376 -0.1337
v  31.4399 0.0332 -0.1337
v  31.4399 0.0453 -0.1337
v  31.4548 0.0451 -0.1337
v  31.2734 0.0376 -0.1337
v  31.2734 0.0482 -0.1337
v  31.4640 0.0776 -0.1376
v  31.4550 0.0918 -0.1376
v  31.4550 0.0918 0.1376
v  31.4640 0.0776 0.1376
v  31.4676 0.0600 -0.1376
v  31.4676 0.0600 0.1376
v  31.2693 0.0324 0.1389
v  31.2693 0.0324 -0.1389
v  31.4297 0.0324 0.1389
v  31.4618 0.0430 0.1389
v  31.4541 0.0324 0.1389
v  31.4658 0.0600 0.1389
v  31.4624 0.0770 0.1389
v  31.4541 0.0899 0.1389
v  31.4399 0.0977 0.1376
v  31.4399 0.0953 0.1389
v  31.2693 0.0899 -0.1389
v  31.2693 0.0899 0.1389
v  31.4297 0.0899 -0.1389
v  31.4624 0.0770 -0.1389
v  31.4541 0.0899 -0.1389
v  31.4658 0.0600 -0.1389
v  31.4618 0.0430 -0.1389
v  31.4541 0.0324 -0.1389
v  31.4399 0.0245 -0.1376
v  31.4399 0.0269 -0.1389
v  31.2706 0.0357 -0.1376
v  31.2706 0.0357 0.1376
v  31.2732 0.0375 0.1340
v  31.2732 0.0375 -0.1340
v  31.4297 0.0357 0.1376
v  31.4297 0.0375 0.1340
v  31.4518 0.0357 0.1376
v  31.4583 0.0442 0.1376
v  31.4551 0.0450 0.1340
v  31.4491 0.0375 0.1340
v  31.4622 0.0601 0.1376
v  31.4588 0.0601 0.1340
v  31.4589 0.0760 0.1376
v  31.4556 0.0752 0.1340
v  31.4517 0.0865 0.1376
v  31.4490 0.0847 0.1340
v  31.4399 0.0913 0.1376
v  31.4399 0.0892 0.1340
v  31.2706 0.0865 0.1376
v  31.2706 0.0865 -0.1376
v  31.2732 0.0847 -0.1340
v  31.2732 0.0847 0.1340
v  31.4297 0.0865 -0.1376
v  31.4297 0.0847 -0.1340
v  31.4517 0.0865 -0.1376
v  31.4589 0.0760 -0.1376
v  31.4556 0.0752 -0.1340
v  31.4490 0.0847 -0.1340
v  31.4622 0.0601 -0.1376
v  31.4588 0.0601 -0.1340
v  31.4583 0.0442 -0.1376
v  31.4551 0.0450 -0.1340
v  31.4518 0.0357 -0.1376
v  31.4491 0.0375 -0.1340
v  31.4399 0.0309 -0.1376
v  31.4399 0.0330 -0.1340
v  31.4489 0.0376 0.1337
v  31.4399 0.0332 0.1337
v  31.4399 0.0330 0.1340
v  31.4548 0.0451 0.1337
v  31.4585 0.0601 0.1337
v  31.4553 0.0752 0.1337
v  31.4488 0.0846 0.1337
v  31.2734 0.0846 0.1337
v  31.4297 0.0846 0.1337
v  31.4297 0.0847 0.1340
v  31.2734 0.0846 -0.1337
v  31.4488 0.0846 -0.1337
v  31.4399 0.0890 -0.1337
v  31.4399 0.0892 -0.1340
v  31.4553 0.0752 -0.1337
v  31.4585 0.0601 -0.1337
v  31.4297 0.0376 -0.1337
v  31.4297 0.0375 -0.1340
v  31.2734 0.0735 0.1337
v  31.2734 0.0735 -0.1337
v  31.2734 0.0604 0.1337
v  31.2734 0.0604 -0.1337
v  31.4399 0.0890 0.1337
v  31.4399 0.0751 0.1337
v  31.4399 0.0601 0.1337
v  31.4399 0.0453 0.1337
v  31.4297 0.0846 -0.1337
v  31.4297 0.0750 -0.1337
v  31.4297 0.0601 -0.1337
v  31.4297 0.0455 -0.1337
v  31.4399 0.0309 0.1376
v  31.4399 0.0269 0.1389
v  31.4297 0.0865 0.1376
v  31.4297 0.0899 0.1389
v  31.4399 0.0913 -0.1376
v  31.4399 0.0953 -0.1389
v  31.4297 0.0357 -0.1376
v  31.4297 0.0324 -0.1389
v  31.4399 0.0245 0.1376
v  31.4399 0.0977 -0.1376
v  31.4297 0.0750 0.1337
v  31.4297 0.0601 0.1337
v  31.4399 0.0751 -0.1337
v  31.4399 0.0601 -0.1337
# 128 vertices

vn 0.0000 -1.0000 -0.0000
vn -0.2566 -0.9665 -0.0000
vn 0.0000 1.0000 -0.0000
vn -0.2567 0.9665 0.0000
vn 0.0000 1.0000 0.0000
vn 0.0000 0.0000 1.0000
vn 0.8203 -0.5720 -0.0000
vn 0.9129 -0.4083 -0.0000
vn 0.0000 0.0000 -1.0000
vn -1.0000 0.0000 -0.0000
vn 0.9283 0.3718 -0.0000
vn 0.8458 0.5335 -0.0000
vn 0.9999 -0.0165 -0.0000
vn -0.8417 -0.5399 -0.0000
vn 0.0000 -0.5559 0.8312
vn 0.4907 -0.3470 0.7993
vn 0.5973 -0.1418 0.7894
vn 0.6019 0.1221 0.7892
vn 0.5079 0.3240 0.7982
vn 0.1870 0.4841 0.8548
vn -0.8406 0.5416 -0.0000
vn 0.0000 0.5577 -0.8301
vn 0.5079 0.3240 -0.7982
vn 0.6019 0.1221 -0.7892
vn 0.5973 -0.1418 -0.7894
vn 0.4907 -0.3470 -0.7993
vn 0.1866 -0.4843 -0.8548
vn -0.5635 0.8261 -0.0000
vn 0.0000 0.8948 0.4464
vn -0.5934 0.4610 0.6599
vn -0.7131 0.1742 0.6791
vn -0.7177 -0.1505 0.6799
vn -0.6153 -0.4230 0.6652
vn -0.3397 -0.7624 0.5507
vn -0.5672 -0.8236 -0.0000
vn 0.0000 -0.8931 -0.4499
vn -0.6153 -0.4230 -0.6652
vn -0.7177 -0.1505 -0.6799
vn -0.7131 0.1742 -0.6791
vn -0.5934 0.4610 -0.6599
vn -0.3372 0.7664 -0.5468
vn -0.3678 0.7501 0.5495
vn -0.5893 0.4676 0.6588
vn -0.7129 0.1755 0.6790
vn -0.7175 -0.1518 0.6799
vn -0.6124 -0.4281 0.6646
vn -0.0000 -0.8931 0.4499
vn -0.3712 -0.7455 -0.5535
vn -0.6124 -0.4281 -0.6646
vn -0.7175 -0.1518 -0.6799
vn -0.7129 0.1755 -0.6790
vn -0.5893 0.4676 -0.6588
vn -0.0000 0.8949 -0.4464
vn -1.0000 -0.0000 0.0000
vn -1.0000 0.0000 0.0000
vn -0.9342 0.3567 -0.0000
vn -0.1201 0.3054 0.9446
vn -0.2745 0.2026 0.9400
vn -0.3361 0.0808 0.9383
vn -0.3385 -0.0697 0.9384
vn -0.2843 -0.1877 0.9402
vn -0.0000 -0.3690 0.9294
vn -0.9346 -0.3558 -0.0000
vn -0.1203 -0.3036 -0.9452
vn -0.2843 -0.1877 -0.9402
vn -0.3385 -0.0697 -0.9384
vn -0.3361 0.0808 -0.9383
vn -0.2745 0.2026 -0.9400
vn -0.0000 0.3699 -0.9291
vn -0.0750 -0.9972 -0.0000
vn -0.0750 0.9972 0.0000
vn -0.0750 0.9972 -0.0000
vn -0.2771 -0.5012 0.8197
vn -0.0000 0.5577 0.8301
vn -0.2781 0.5028 -0.8185
vn -0.0000 -0.5559 -0.8312
vn 0.3715 0.8153 0.4442
vn 0.0000 -0.8931 0.4499
vn 0.3707 -0.8137 -0.4477
vn -0.0000 0.8948 -0.4464
vn 0.3579 -0.8181 0.4501
vn 0.3587 0.8197 -0.4466
vn 0.0000 0.3699 0.9291
vn 0.1693 -0.3364 0.9264
vn 0.0000 -0.3690 -0.9294
vn 0.1697 0.3371 -0.9260
vn -0.2781 0.5028 0.8185
vn -0.2771 -0.5012 -0.8197
vn 0.3707 -0.8137 0.4477
vn 0.3715 0.8153 -0.4442
vn 0.3587 0.8197 0.4466
vn 0.3579 -0.8181 -0.4501
vn 0.1697 0.3371 0.9260
vn 0.1693 -0.3364 -0.9264
vn 0.3607 -0.9327 -0.0000
vn 0.3608 0.9326 -0.0000
vn 0.1866 -0.4843 0.8548
vn 0.1870 0.4841 -0.8548
vn -0.3372 0.7664 0.5468
vn -0.3397 -0.7624 -0.5507
vn -0.3712 -0.7455 0.5535
vn -0.3678 0.7501 -0.5495
vn -0.1203 -0.3036 0.9452
vn -0.1201 0.3054 -0.9446
# 104 vertex normals

vt 0.9724 0.2988 0.0000
vt 0.9704 0.9073 0.0000
vt 0.6229 0.9141 0.0000
vt 0.6200 0.2992 0.0000
vt 0.0276 0.3141 0.0000
vt 0.3791 0.3099 0.0000
vt 0.3820 0.9248 0.0000
vt 0.0296 0.9251 0.0000
vt 0.5942 0.1558 0.0000
vt 0.9267 0.1442 0.0000
vt 0.9273 0.1608 0.0000
vt 0.5950 0.1782 0.0000
vt 0.5660 0.3027 0.0000
vt 0.5682 0.9150 0.0000
vt 0.5400 0.9169 0.0000
vt 0.5378 0.3038 0.0000
vt 0.0667 0.0326 0.0000
vt 0.0833 0.0253 0.0000
vt 0.0822 0.0470 0.0000
vt 0.0554 0.0455 0.0000
vt 0.0250 0.1769 0.0000
vt 0.5940 0.1558 0.0000
vt 0.5949 0.1782 0.0000
vt 0.0259 0.1994 0.0000
vt 0.4687 0.9203 0.0000
vt 0.4358 0.9213 0.0000
vt 0.4336 0.3092 0.0000
vt 0.4665 0.3072 0.0000
vt 0.5043 0.9185 0.0000
vt 0.5021 0.3055 0.0000
vt 0.9745 0.2966 0.0000
vt 0.9742 0.9106 0.0000
vt 0.6196 0.2923 0.0000
vt 0.5381 0.2987 0.0000
vt 0.5648 0.2978 0.0000
vt 0.5020 0.3007 0.0000
vt 0.4658 0.3023 0.0000
vt 0.4345 0.3044 0.0000
vt 0.4021 0.3105 0.0000
vt 0.4031 0.3056 0.0000
vt 0.0275 0.9273 0.0000
vt 0.0253 0.3121 0.0000
vt 0.3824 0.9318 0.0000
vt 0.4683 0.9253 0.0000
vt 0.4370 0.9261 0.0000
vt 0.5044 0.9234 0.0000
vt 0.5406 0.9217 0.0000
vt 0.5673 0.9199 0.0000
vt 0.5998 0.9135 0.0000
vt 0.5989 0.9184 0.0000
vt 0.9772 0.9135 0.0000
vt 0.9765 0.2936 0.0000
vt 0.9779 0.2919 0.0000
vt 0.9807 0.9170 0.0000
vt 0.6197 0.2836 0.0000
vt 0.6198 0.2749 0.0000
vt 0.5639 0.2889 0.0000
vt 0.5388 0.2902 0.0000
vt 0.5398 0.2795 0.0000
vt 0.5654 0.2786 0.0000
vt 0.5016 0.2921 0.0000
vt 0.5011 0.2813 0.0000
vt 0.4645 0.2939 0.0000
vt 0.4625 0.2833 0.0000
vt 0.4348 0.2956 0.0000
vt 0.4326 0.2854 0.0000
vt 0.4048 0.2967 0.0000
vt 0.4062 0.2872 0.0000
vt 0.0235 0.3096 0.0000
vt 0.0264 0.9284 0.0000
vt 0.0248 0.9298 0.0000
vt 0.0213 0.3072 0.0000
vt 0.3823 0.9404 0.0000
vt 0.3823 0.9491 0.0000
vt 0.4380 0.9350 0.0000
vt 0.4676 0.9339 0.0000
vt 0.4666 0.9446 0.0000
vt 0.4366 0.9454 0.0000
vt 0.5048 0.9319 0.0000
vt 0.5053 0.9427 0.0000
vt 0.5420 0.9300 0.0000
vt 0.5439 0.9405 0.0000
vt 0.5671 0.9287 0.0000
vt 0.5694 0.9389 0.0000
vt 0.5973 0.9273 0.0000
vt 0.5960 0.9369 0.0000
vt 0.9789 0.2906 0.0000
vt 0.9840 0.9225 0.0000
vt 0.5654 0.2777 0.0000
vt 0.5917 0.2774 0.0000
vt 0.5921 0.2784 0.0000
vt 0.5399 0.2785 0.0000
vt 0.5011 0.2804 0.0000
vt 0.4624 0.2824 0.0000
vt 0.4326 0.2845 0.0000
vt 0.0187 0.3046 0.0000
vt 0.3785 0.2855 0.0000
vt 0.3785 0.2860 0.0000
vt 0.0232 0.9315 0.0000
vt 0.4366 0.9463 0.0000
vt 0.4104 0.9467 0.0000
vt 0.4100 0.9457 0.0000
vt 0.4666 0.9455 0.0000
vt 0.5053 0.9436 0.0000
vt 0.5440 0.9414 0.0000
vt 0.5695 0.9398 0.0000
vt 0.6237 0.9385 0.0000
vt 0.6237 0.9379 0.0000
vt 0.5968 0.2321 0.0000
vt 0.5977 0.2556 0.0000
vt 0.0287 0.2767 0.0000
vt 0.0278 0.2533 0.0000
vt 0.5958 0.2041 0.0000
vt 0.0268 0.2253 0.0000
vt 0.9840 0.2221 0.0000
vt 0.9707 0.2426 0.0000
vt 0.9522 0.2528 0.0000
vt 0.9512 0.2231 0.0000
vt 0.9897 0.1898 0.0000
vt 0.9501 0.1913 0.0000
vt 0.9807 0.1582 0.0000
vt 0.9490 0.1597 0.0000
vt 0.3792 0.1116 0.0000
vt 0.3783 0.1315 0.0000
vt 0.0974 0.1185 0.0000
vt 0.0981 0.1013 0.0000
vt 0.3803 0.0880 0.0000
vt 0.0994 0.0746 0.0000
vt 0.3813 0.0661 0.0000
vt 0.1006 0.0482 0.0000
vt 0.5941 0.2878 0.0000
vt 0.5962 0.2966 0.0000
vt 0.3790 0.2947 0.0000
vt 0.3793 0.3032 0.0000
vt 0.4080 0.9362 0.0000
vt 0.4057 0.9274 0.0000
vt 0.6232 0.9292 0.0000
vt 0.6227 0.9208 0.0000
vt 0.5974 0.3017 0.0000
vt 0.4045 0.9223 0.0000
vt 0.9481 0.1340 0.0000
vt 0.1013 0.0342 0.0000
vt 0.3822 0.0471 0.0000
vt 0.6198 0.2744 0.0000
vt 0.4066 0.2862 0.0000
vt 0.3823 0.9496 0.0000
vt 0.5956 0.9379 0.0000
vt 0.9301 0.2440 0.0000
vt 0.9295 0.2236 0.0000
vt 0.9284 0.1920 0.0000
vt 0.0786 0.1257 0.0000
vt 0.0798 0.1006 0.0000
vt 0.0810 0.0737 0.0000
vt 0.9676 0.1428 0.0000
vt 0.0631 0.1169 0.0000
vt 0.0520 0.0995 0.0000
vt 0.0475 0.0721 0.0000
# 157 texture coords

g Book_Closed
usemtl wire_177088027
s 1
f 1/1/1 2/2/1 3/3/2 4/4/2 
f 5/5/3 6/6/4 7/7/4 8/8/5 
s 2
f 9/9/6 10/10/6 11/11/6 12/12/6 
s 4
f 13/13/7 14/14/7 15/15/8 16/16/8 
s 2
f 17/17/9 18/18/9 19/19/9 20/20/9 
s 4
f 21/21/10 9/22/10 12/23/10 22/24/10 
f 23/25/11 24/26/12 25/27/12 26/28/11 
f 16/16/8 15/15/8 27/29/13 28/30/13 
f 23/25/11 26/28/11 28/30/13 27/29/13 
s off
f 2/2/14 1/1/14 29/31/14 30/32/14 
f 1/1/15 4/4/15 31/33/15 29/31/15 
f 13/13/16 16/16/16 32/34/16 33/35/16 
f 16/16/17 28/30/17 34/36/17 32/34/17 
f 28/30/18 26/28/18 35/37/18 34/36/18 
f 26/28/19 25/27/19 36/38/19 35/37/19 
f 25/27/20 37/39/20 38/40/20 36/38/20 
f 5/5/21 8/8/21 39/41/21 40/42/21 
f 8/8/22 7/7/22 41/43/22 39/41/22 
f 24/26/23 23/25/23 42/44/23 43/45/23 
f 23/25/24 27/29/24 44/46/24 42/44/24 
f 27/29/25 15/15/25 45/47/25 44/46/25 
f 15/15/26 14/14/26 46/48/26 45/47/26 
f 14/14/27 47/49/27 48/50/27 46/48/27 
f 49/51/28 50/52/28 51/53/28 52/54/28 
f 50/52/29 53/55/29 54/56/29 51/53/29 
f 55/57/30 56/58/30 57/59/30 58/60/30 
f 56/58/31 59/61/31 60/62/31 57/59/31 
f 59/61/32 61/63/32 62/64/32 60/62/32 
f 61/63/33 63/65/33 64/66/33 62/64/33 
f 63/65/34 65/67/34 66/68/34 64/66/34 
f 67/69/35 68/70/35 69/71/35 70/72/35 
f 68/70/36 71/73/36 72/74/36 69/71/36 
f 73/75/37 74/76/37 75/77/37 76/78/37 
f 74/76/38 77/79/38 78/80/38 75/77/38 
f 77/79/39 79/81/39 80/82/39 78/80/39 
f 79/81/40 81/83/40 82/84/40 80/82/40 
f 81/83/41 83/85/41 84/86/41 82/84/41 
f 51/53/28 9/87/28 21/88/28 52/54/28 
f 58/60/42 85/89/42 86/90/42 87/91/42 
f 57/59/43 88/92/43 85/89/43 58/60/43 
f 60/62/44 89/93/44 88/92/44 57/59/44 
f 62/64/45 90/94/45 89/93/45 60/62/45 
f 64/66/46 91/95/46 90/94/46 62/64/46 
f 70/72/47 92/96/47 93/97/47 94/98/47 
f 69/71/35 95/99/35 92/96/35 70/72/35 
f 76/78/48 96/100/48 97/101/48 98/102/48 
f 75/77/49 99/103/49 96/100/49 76/78/49 
f 78/80/50 100/104/50 99/103/50 75/77/50 
f 80/82/51 20/105/51 100/104/51 78/80/51 
f 82/84/52 17/106/52 20/105/52 80/82/52 
f 52/54/53 21/88/53 101/107/53 102/108/53 
s 4
f 103/109/54 92/110/54 95/111/10 104/112/54 
f 105/113/10 103/109/54 104/112/54 106/114/55 
f 12/23/10 105/113/10 106/114/55 22/24/10 
s 2
f 90/115/6 91/116/6 107/117/6 108/118/6 
f 89/119/6 90/115/6 108/118/6 109/120/6 
f 88/121/6 89/119/6 109/120/6 110/122/6 
f 104/123/9 95/124/9 111/125/9 112/126/9 
f 106/127/9 104/123/9 112/126/9 113/128/9 
f 22/129/9 106/127/9 113/128/9 114/130/9 
s off
f 29/31/56 50/52/56 49/51/56 30/32/56 
f 33/35/57 55/57/57 115/131/57 116/132/57 
f 32/34/58 56/58/58 55/57/58 33/35/58 
f 34/36/59 59/61/59 56/58/59 32/34/59 
f 35/37/60 61/63/60 59/61/60 34/36/60 
f 36/38/61 63/65/61 61/63/61 35/37/61 
f 40/42/62 67/69/62 117/133/62 118/134/62 
f 39/41/63 68/70/63 67/69/63 40/42/63 
f 43/45/64 73/75/64 119/135/64 120/136/64 
f 42/44/65 74/76/65 73/75/65 43/45/65 
f 44/46/66 77/79/66 74/76/66 42/44/66 
f 45/47/67 79/81/67 77/79/67 44/46/67 
f 46/48/68 81/83/68 79/81/68 45/47/68 
f 30/32/69 49/51/69 121/137/69 122/138/69 
s 1
f 3/3/2 47/49/70 123/139/70 4/4/2 
f 6/6/4 37/39/71 124/140/72 7/7/4 
s 2
f 10/10/6 86/141/6 110/122/6 11/11/6 
f 101/142/9 21/143/9 22/129/9 114/130/9 
s off
f 4/4/73 123/139/73 116/132/73 31/33/73 
f 6/6/74 5/5/74 40/42/74 118/134/74 
f 7/7/75 124/140/75 120/136/75 41/43/75 
f 3/3/76 2/2/76 30/32/76 122/138/76 
f 53/55/77 115/131/77 87/91/77 54/56/77 
f 117/133/78 67/69/78 70/72/78 94/98/78 
f 71/73/79 119/135/79 98/102/79 72/74/79 
f 121/137/80 49/51/80 52/54/80 102/108/80 
f 10/144/29 9/87/29 51/53/29 54/56/29 
f 93/97/81 107/145/81 66/68/81 94/98/81 
f 111/146/36 95/99/36 69/71/36 72/74/36 
f 101/107/82 18/147/82 84/86/82 102/108/82 
s 2
f 93/148/6 92/110/6 103/109/6 125/149/6 
f 125/149/6 103/109/6 105/113/6 126/150/6 
f 126/150/6 105/113/6 12/12/6 11/11/6 
f 111/125/9 97/151/9 127/152/9 112/126/9 
f 112/126/9 127/152/9 128/153/9 113/128/9 
f 113/128/9 128/153/9 19/19/9 114/130/9 
s off
f 53/55/83 50/52/83 29/31/83 31/33/83 
f 117/133/84 65/67/84 38/40/84 118/134/84 
f 71/73/85 68/70/85 39/41/85 41/43/85 
f 121/137/86 83/85/86 48/50/86 122/138/86 
s 2
f 18/18/9 101/142/9 114/130/9 19/19/9 
s off
f 37/39/87 6/6/87 118/134/87 38/40/87 
f 47/49/88 3/3/88 122/138/88 48/50/88 
f 65/67/89 117/133/89 94/98/89 66/68/89 
f 83/85/90 121/137/90 102/108/90 84/86/90 
f 86/90/91 10/144/91 54/56/91 87/91/91 
f 97/101/92 111/146/92 72/74/92 98/102/92 
s 2
f 107/117/6 93/148/6 125/149/6 108/118/6 
f 108/118/6 125/149/6 126/150/6 109/120/6 
f 109/120/6 126/150/6 11/11/6 110/122/6 
s off
f 115/131/93 53/55/93 31/33/93 116/132/93 
f 119/135/94 71/73/94 41/43/94 120/136/94 
s 1
f 47/49/70 14/14/95 13/13/95 123/139/70 
f 37/39/71 25/27/96 24/26/96 124/140/72 
s 2
f 86/141/6 85/154/6 88/121/6 110/122/6 
s off
f 123/139/97 13/13/97 33/35/97 116/132/97 
f 124/140/98 24/26/98 43/45/98 120/136/98 
f 115/131/99 55/57/99 58/60/99 87/91/99 
f 119/135/100 73/75/100 76/78/100 98/102/100 
f 107/145/101 91/95/101 64/66/101 66/68/101 
f 18/147/102 17/106/102 82/84/102 84/86/102 
s 2
f 97/151/9 96/155/9 99/156/9 127/152/9 
f 127/152/9 99/156/9 100/157/9 128/153/9 
f 128/153/9 100/157/9 20/20/9 19/19/9 
s off
f 65/67/103 63/65/103 36/38/103 38/40/103 
f 83/85/104 81/83/104 46/48/104 48/50/104 
# 126 polygons

